ISO-10303-21;
HEADER;
FILE_DESCRIPTION(('shape.step'),'2;1');
FILE_NAME('shape.step','2026-10-01',('tscircuit'),('tscircuit'),'generator','','');
FILE_SCHEMA(('AUTOMOTIVE_DESIGN { 1 0 10303 214 1 1 1 1 }'));
ENDSEC;
DATA;
#1 = APPLICATION_CONTEXT('core data for automotive mechanical design processes');
#2 = APPLICATION_PROTOCOL_DEFINITION('international standard','automotive_design',2000,#1);
#3 = PRODUCT_CONTEXT('',#1,'mechanical');
#4 = PRODUCT('shape','shape','',(#3));
#5 = PRODUCT_DEFINITION_CONTEXT('part definition',#1,'design');
#6 = PRODUCT_DEFINITION_FORMATION('','',#4);
#7 = PRODUCT_DEFINITION('design','',#6,#5);
#8 = PRODUCT_DEFINITION_SHAPE('','',#7);
#9 = (
LENGTH_UNIT()
NAMED_UNIT(*)
SI_UNIT(.MILLI.,.METRE.)
);
#10 = (
NAMED_UNIT(*)
PLANE_ANGLE_UNIT()
SI_UNIT($,.RADIAN.)
);
#11 = (
NAMED_UNIT(*)
SI_UNIT($,.STERADIAN.)
SOLID_ANGLE_UNIT()
);
#12 = UNCERTAINTY_MEASURE_WITH_UNIT(LENGTH_MEASURE(1.E-07),#9,'distance_accuracy_value','confusion accuracy');
#13 = (
GEOMETRIC_REPRESENTATION_CONTEXT(3)
GLOBAL_UNCERTAINTY_ASSIGNED_CONTEXT((#12))
GLOBAL_UNIT_ASSIGNED_CONTEXT((#9,#10,#11))
REPRESENTATION_CONTEXT('Context #1','3D
Context with
TORTURE://UNITS')
);
#14 = CARTESIAN_POINT('',(0.,0.,0.));
#15 = DIRECTION('',(0.,0.,1.));
#16 = DIRECTION('',(1.,0.,0.));
#17 = AXIS2_PLACEMENT_3D('',#14,#15,#16);
#18 = CARTESIAN_POINT('',(-2.54,-1.27,0.));
#19 = VERTEX_POINT('',#18);
#20 = CARTESIAN_POINT('',(-2.54,-1.27,2.));
#21 = VERTEX_POINT('',#20);
#22 = CARTESIAN_POINT('',(-2.54,1.27,2.));
#23 = VERTEX_POINT('',#22);
#24 = CARTESIAN_POINT('',(-2.54,1.27,0.));
#25 = VERTEX_POINT('',#24);
#26 = DIRECTION('',(0.,0.,1.));
#27 = VECTOR('',#26,1.);
#28 = LINE('',#18,#27);
#29 = EDGE_CURVE('',#19,#21,#28,.T.);
#30 = ORIENTED_EDGE('',*,*,#29,.T.);
#31 = DIRECTION('',(0.,1.,0.));
#32 = VECTOR('',#31,1.);
#33 = LINE('',#20,#32);
#34 = EDGE_CURVE('',#21,#23,#33,.T.);
#35 = ORIENTED_EDGE('',*,*,#34,.T.);
#36 = DIRECTION('',(0.,0.,1.));
#37 = VECTOR('',#36,1.);
#38 = LINE('',#24,#37);
#39 = EDGE_CURVE('',#25,#23,#38,.T.);
#40 = ORIENTED_EDGE('',*,*,#39,.F.);
#41 = DIRECTION('',(0.,1.,0.));
#42 = VECTOR('',#41,1.);
#43 = LINE('',#18,#42);
#44 = EDGE_CURVE('',#19,#25,#43,.T.);
#45 = ORIENTED_EDGE('',*,*,#44,.F.);
#46 = CARTESIAN_POINT('',(-2.54,-1.27,0.));
#47 = DIRECTION('',(-1.,0.,0.));
#48 = DIRECTION('',(0.,0.,1.));
#49 = AXIS2_PLACEMENT_3D('',#46,#47,#48);
#50 = PLANE('',#49);
#51 = EDGE_LOOP('',(#30,#35,#40,#45));
#52 = FACE_OUTER_BOUND('',#51,.T.);
#53 = ADVANCED_FACE('',(#52),#50,.T.);
#54 = CARTESIAN_POINT('',(0.,-1.27,0.));
#55 = VERTEX_POINT('',#54);
#56 = CARTESIAN_POINT('',(0.,1.27,0.));
#57 = VERTEX_POINT('',#56);
#58 = CARTESIAN_POINT('',(0.,1.27,2.));
#59 = VERTEX_POINT('',#58);
#60 = CARTESIAN_POINT('',(0.,-1.27,2.));
#61 = VERTEX_POINT('',#60);
#62 = DIRECTION('',(0.,1.,0.));
#63 = VECTOR('',#62,1.);
#64 = LINE('',#54,#63);
#65 = EDGE_CURVE('',#55,#57,#64,.T.);
#66 = ORIENTED_EDGE('',*,*,#65,.T.);
#67 = DIRECTION('',(0.,0.,1.));
#68 = VECTOR('',#67,1.);
#69 = LINE('',#56,#68);
#70 = EDGE_CURVE('',#57,#59,#69,.T.);
#71 = ORIENTED_EDGE('',*,*,#70,.T.);
#72 = DIRECTION('',(0.,1.,0.));
#73 = VECTOR('',#72,1.);
#74 = LINE('',#60,#73);
#75 = EDGE_CURVE('',#61,#59,#74,.T.);
#76 = ORIENTED_EDGE('',*,*,#75,.F.);
#77 = DIRECTION('',(0.,0.,1.));
#78 = VECTOR('',#77,1.);
#79 = LINE('',#54,#78);
#80 = EDGE_CURVE('',#55,#61,#79,.T.);
#81 = ORIENTED_EDGE('',*,*,#80,.F.);
#82 = CARTESIAN_POINT('',(0.,-1.27,0.));
#83 = DIRECTION('',(1.,0.,0.));
#84 = DIRECTION('',(0.,1.,0.));
#85 = AXIS2_PLACEMENT_3D('',#82,#83,#84);
#86 = PLANE('',#85);
#87 = EDGE_LOOP('',(#66,#71,#76,#81));
#88 = FACE_OUTER_BOUND('',#87,.T.);
#89 = ADVANCED_FACE('',(#88),#86,.T.);
#90 = DIRECTION('',(1.,0.,0.));
#91 = VECTOR('',#90,1.);
#92 = LINE('',#18,#91);
#93 = EDGE_CURVE('',#19,#55,#92,.T.);
#94 = ORIENTED_EDGE('',*,*,#93,.T.);
#95 = ORIENTED_EDGE('',*,*,#80,.T.);
#96 = DIRECTION('',(1.,0.,0.));
#97 = VECTOR('',#96,1.);
#98 = LINE('',#20,#97);
#99 = EDGE_CURVE('',#21,#61,#98,.T.);
#100 = ORIENTED_EDGE('',*,*,#99,.F.);
#101 = ORIENTED_EDGE('',*,*,#29,.F.);
#102 = CARTESIAN_POINT('',(-2.54,-1.27,0.));
#103 = DIRECTION('',(0.,-1.,0.));
#104 = DIRECTION('',(1.,0.,0.));
#105 = AXIS2_PLACEMENT_3D('',#102,#103,#104);
#106 = PLANE('',#105);
#107 = EDGE_LOOP('',(#94,#95,#100,#101));
#108 = FACE_OUTER_BOUND('',#107,.T.);
#109 = ADVANCED_FACE('',(#108),#106,.T.);
#110 = ORIENTED_EDGE('',*,*,#39,.T.);
#111 = DIRECTION('',(1.,0.,0.));
#112 = VECTOR('',#111,1.);
#113 = LINE('',#22,#112);
#114 = EDGE_CURVE('',#23,#59,#113,.T.);
#115 = ORIENTED_EDGE('',*,*,#114,.T.);
#116 = ORIENTED_EDGE('',*,*,#70,.F.);
#117 = DIRECTION('',(1.,0.,0.));
#118 = VECTOR('',#117,1.);
#119 = LINE('',#24,#118);
#120 = EDGE_CURVE('',#25,#57,#119,.T.);
#121 = ORIENTED_EDGE('',*,*,#120,.F.);
#122 = CARTESIAN_POINT('',(-2.54,1.27,0.));
#123 = DIRECTION('',(0.,1.,0.));
#124 = DIRECTION('',(0.,0.,1.));
#125 = AXIS2_PLACEMENT_3D('',#122,#123,#124);
#126 = PLANE('',#125);
#127 = EDGE_LOOP('',(#110,#115,#116,#121));
#128 = FACE_OUTER_BOUND('',#127,.T.);
#129 = ADVANCED_FACE('',(#128),#126,.T.);
#130 = ORIENTED_EDGE('',*,*,#44,.T.);
#131 = ORIENTED_EDGE('',*,*,#120,.T.);
#132 = ORIENTED_EDGE('',*,*,#65,.F.);
#133 = ORIENTED_EDGE('',*,*,#93,.F.);
#134 = CARTESIAN_POINT('',(-2.54,-1.27,0.));
#135 = DIRECTION('',(0.,0.,-1.));
#136 = DIRECTION('',(0.,1.,0.));
#137 = AXIS2_PLACEMENT_3D('',#134,#135,#136);
#138 = PLANE('',#137);
#139 = EDGE_LOOP('',(#130,#131,#132,#133));
#140 = FACE_OUTER_BOUND('',#139,.T.);
#141 = ADVANCED_FACE('',(#140),#138,.T.);
#142 = ORIENTED_EDGE('',*,*,#99,.T.);
#143 = ORIENTED_EDGE('',*,*,#75,.T.);
#144 = ORIENTED_EDGE('',*,*,#114,.F.);
#145 = ORIENTED_EDGE('',*,*,#34,.F.);
#146 = CARTESIAN_POINT('',(-2.54,-1.27,2.));
#147 = DIRECTION('',(0.,0.,1.));
#148 = DIRECTION('',(1.,0.,0.));
#149 = AXIS2_PLACEMENT_3D('',#146,#147,#148);
#150 = PLANE('',#149);
#151 = EDGE_LOOP('',(#142,#143,#144,#145));
#152 = FACE_OUTER_BOUND('',#151,.T.);
#153 = ADVANCED_FACE('',(#152),#150,.T.);
#154 = CLOSED_SHELL('',(#53,#89,#109,#129,#141,#153));
#155 = MANIFOLD_SOLID_BREP('',#154);
#156 = COLOUR_RGB('',0.13333333333333333,0.13333333333333333,0.13333333333333333);
#157 = FILL_AREA_STYLE_COLOUR('',#156);
#158 = FILL_AREA_STYLE('',(#157));
#159 = SURFACE_STYLE_FILL_AREA(#158);
#160 = SURFACE_SIDE_STYLE('',(#159));
#161 = SURFACE_STYLE_USAGE(.BOTH.,#160);
#162 = PRESENTATION_STYLE_ASSIGNMENT((#161));
#163 = STYLED_ITEM('',(#162),#155);
#164 = CARTESIAN_POINT('',(-0.9550000000000001,-0.315,0.5500000000000003));
#165 = VERTEX_POINT('',#164);
#166 = CARTESIAN_POINT('',(-1.585,-0.315,0.5500000000000003));
#167 = VERTEX_POINT('',#166);
#168 = CARTESIAN_POINT('',(-1.585,-0.315,-2.15));
#169 = VERTEX_POINT('',#168);
#170 = CARTESIAN_POINT('',(-0.9550000000000001,-0.315,-2.15));
#171 = VERTEX_POINT('',#170);
#172 = DIRECTION('',(-1.,0.,0.));
#173 = VECTOR('',#172,1.);
#174 = LINE('',#164,#173);
#175 = EDGE_CURVE('',#165,#167,#174,.T.);
#176 = ORIENTED_EDGE('',*,*,#175,.T.);
#177 = DIRECTION('',(0.,0.,1.));
#178 = VECTOR('',#177,1.);
#179 = LINE('',#168,#178);
#180 = EDGE_CURVE('',#169,#167,#179,.T.);
#181 = ORIENTED_EDGE('',*,*,#180,.F.);
#182 = DIRECTION('',(-1.,0.,0.));
#183 = VECTOR('',#182,1.);
#184 = LINE('',#170,#183);
#185 = EDGE_CURVE('',#171,#169,#184,.T.);
#186 = ORIENTED_EDGE('',*,*,#185,.F.);
#187 = DIRECTION('',(0.,0.,1.));
#188 = VECTOR('',#187,1.);
#189 = LINE('',#170,#188);
#190 = EDGE_CURVE('',#171,#165,#189,.T.);
#191 = ORIENTED_EDGE('',*,*,#190,.T.);
#192 = CARTESIAN_POINT('',(-0.9550000000000001,-0.315,0.5500000000000003));
#193 = DIRECTION('',(0.,-1.,0.));
#194 = DIRECTION('',(-1.,0.,0.));
#195 = AXIS2_PLACEMENT_3D('',#192,#193,#194);
#196 = PLANE('',#195);
#197 = EDGE_LOOP('',(#176,#181,#186,#191));
#198 = FACE_OUTER_BOUND('',#197,.T.);
#199 = ADVANCED_FACE('',(#198),#196,.T.);
#200 = CARTESIAN_POINT('',(-0.9550000000000001,0.315,-2.15));
#201 = VERTEX_POINT('',#200);
#202 = CARTESIAN_POINT('',(-0.9550000000000001,0.315,0.5500000000000003));
#203 = VERTEX_POINT('',#202);
#204 = ORIENTED_EDGE('',*,*,#190,.F.);
#205 = DIRECTION('',(0.,1.,0.));
#206 = VECTOR('',#205,1.);
#207 = LINE('',#170,#206);
#208 = EDGE_CURVE('',#171,#201,#207,.T.);
#209 = ORIENTED_EDGE('',*,*,#208,.T.);
#210 = DIRECTION('',(0.,0.,1.));
#211 = VECTOR('',#210,1.);
#212 = LINE('',#200,#211);
#213 = EDGE_CURVE('',#201,#203,#212,.T.);
#214 = ORIENTED_EDGE('',*,*,#213,.T.);
#215 = DIRECTION('',(0.,1.,0.));
#216 = VECTOR('',#215,1.);
#217 = LINE('',#164,#216);
#218 = EDGE_CURVE('',#165,#203,#217,.T.);
#219 = ORIENTED_EDGE('',*,*,#218,.F.);
#220 = CARTESIAN_POINT('',(-0.9550000000000001,-0.315,0.5500000000000003));
#221 = DIRECTION('',(1.,0.,0.));
#222 = DIRECTION('',(0.,0.,-1.));
#223 = AXIS2_PLACEMENT_3D('',#220,#221,#222);
#224 = PLANE('',#223);
#225 = EDGE_LOOP('',(#204,#209,#214,#219));
#226 = FACE_OUTER_BOUND('',#225,.T.);
#227 = ADVANCED_FACE('',(#226),#224,.T.);
#228 = CARTESIAN_POINT('',(-1.095,-0.175,-2.5));
#229 = VERTEX_POINT('',#228);
#230 = CARTESIAN_POINT('',(-1.445,-0.175,-2.5));
#231 = VERTEX_POINT('',#230);
#232 = DIRECTION('',(-0.3481553119113954,0.3481553119113957,-0.8703882797784894));
#233 = VECTOR('',#232,1.);
#234 = LINE('',#170,#233);
#235 = EDGE_CURVE('',#171,#229,#234,.T.);
#236 = ORIENTED_EDGE('',*,*,#235,.F.);
#237 = ORIENTED_EDGE('',*,*,#185,.T.);
#238 = DIRECTION('',(-0.3481553119113954,-0.3481553119113957,0.8703882797784894));
#239 = VECTOR('',#238,1.);
#240 = LINE('',#230,#239);
#241 = EDGE_CURVE('',#231,#169,#240,.T.);
#242 = ORIENTED_EDGE('',*,*,#241,.F.);
#243 = DIRECTION('',(-1.,0.,0.));
#244 = VECTOR('',#243,1.);
#245 = LINE('',#228,#244);
#246 = EDGE_CURVE('',#229,#231,#245,.T.);
#247 = ORIENTED_EDGE('',*,*,#246,.F.);
#248 = CARTESIAN_POINT('',(-1.095,-0.175,-2.5));
#249 = DIRECTION('',(0.,-0.9284766908852593,-0.37139067635410344));
#250 = DIRECTION('',(0.3481553119113954,-0.3481553119113957,0.8703882797784894));
#251 = AXIS2_PLACEMENT_3D('',#248,#249,#250);
#252 = PLANE('',#251);
#253 = EDGE_LOOP('',(#236,#237,#242,#247));
#254 = FACE_OUTER_BOUND('',#253,.T.);
#255 = ADVANCED_FACE('',(#254),#252,.T.);
#256 = CARTESIAN_POINT('',(-1.585,0.315,0.5500000000000003));
#257 = VERTEX_POINT('',#256);
#258 = CARTESIAN_POINT('',(-1.585,0.315,-2.15));
#259 = VERTEX_POINT('',#258);
#260 = DIRECTION('',(-1.,0.,0.));
#261 = VECTOR('',#260,1.);
#262 = LINE('',#202,#261);
#263 = EDGE_CURVE('',#203,#257,#262,.T.);
#264 = ORIENTED_EDGE('',*,*,#263,.F.);
#265 = ORIENTED_EDGE('',*,*,#213,.F.);
#266 = DIRECTION('',(-1.,0.,0.));
#267 = VECTOR('',#266,1.);
#268 = LINE('',#200,#267);
#269 = EDGE_CURVE('',#201,#259,#268,.T.);
#270 = ORIENTED_EDGE('',*,*,#269,.T.);
#271 = DIRECTION('',(0.,0.,1.));
#272 = VECTOR('',#271,1.);
#273 = LINE('',#258,#272);
#274 = EDGE_CURVE('',#259,#257,#273,.T.);
#275 = ORIENTED_EDGE('',*,*,#274,.T.);
#276 = CARTESIAN_POINT('',(-1.585,0.315,0.5500000000000003));
#277 = DIRECTION('',(0.,1.,0.));
#278 = DIRECTION('',(1.,0.,0.));
#279 = AXIS2_PLACEMENT_3D('',#276,#277,#278);
#280 = PLANE('',#279);
#281 = EDGE_LOOP('',(#264,#265,#270,#275));
#282 = FACE_OUTER_BOUND('',#281,.T.);
#283 = ADVANCED_FACE('',(#282),#280,.T.);
#284 = ORIENTED_EDGE('',*,*,#274,.F.);
#285 = DIRECTION('',(0.,1.,0.));
#286 = VECTOR('',#285,1.);
#287 = LINE('',#168,#286);
#288 = EDGE_CURVE('',#169,#259,#287,.T.);
#289 = ORIENTED_EDGE('',*,*,#288,.F.);
#290 = ORIENTED_EDGE('',*,*,#180,.T.);
#291 = DIRECTION('',(0.,1.,0.));
#292 = VECTOR('',#291,1.);
#293 = LINE('',#166,#292);
#294 = EDGE_CURVE('',#167,#257,#293,.T.);
#295 = ORIENTED_EDGE('',*,*,#294,.T.);
#296 = CARTESIAN_POINT('',(-1.585,0.315,0.5500000000000003));
#297 = DIRECTION('',(-1.,0.,0.));
#298 = DIRECTION('',(0.,0.,-1.));
#299 = AXIS2_PLACEMENT_3D('',#296,#297,#298);
#300 = PLANE('',#299);
#301 = EDGE_LOOP('',(#284,#289,#290,#295));
#302 = FACE_OUTER_BOUND('',#301,.T.);
#303 = ADVANCED_FACE('',(#302),#300,.T.);
#304 = ORIENTED_EDGE('',*,*,#294,.F.);
#305 = ORIENTED_EDGE('',*,*,#175,.F.);
#306 = ORIENTED_EDGE('',*,*,#218,.T.);
#307 = ORIENTED_EDGE('',*,*,#263,.T.);
#308 = CARTESIAN_POINT('',(-1.585,0.315,0.5500000000000003));
#309 = DIRECTION('',(0.,0.,1.));
#310 = DIRECTION('',(0.,-1.,0.));
#311 = AXIS2_PLACEMENT_3D('',#308,#309,#310);
#312 = PLANE('',#311);
#313 = EDGE_LOOP('',(#304,#305,#306,#307));
#314 = FACE_OUTER_BOUND('',#313,.T.);
#315 = ADVANCED_FACE('',(#314),#312,.T.);
#316 = CARTESIAN_POINT('',(-1.095,0.175,-2.5));
#317 = VERTEX_POINT('',#316);
#318 = DIRECTION('',(-0.3481553119113954,-0.3481553119113957,-0.8703882797784894));
#319 = VECTOR('',#318,1.);
#320 = LINE('',#200,#319);
#321 = EDGE_CURVE('',#201,#317,#320,.T.);
#322 = ORIENTED_EDGE('',*,*,#321,.F.);
#323 = ORIENTED_EDGE('',*,*,#208,.F.);
#324 = ORIENTED_EDGE('',*,*,#235,.T.);
#325 = DIRECTION('',(0.,1.,0.));
#326 = VECTOR('',#325,1.);
#327 = LINE('',#228,#326);
#328 = EDGE_CURVE('',#229,#317,#327,.T.);
#329 = ORIENTED_EDGE('',*,*,#328,.T.);
#330 = CARTESIAN_POINT('',(-1.095,0.175,-2.5));
#331 = DIRECTION('',(0.9284766908852596,0.,-0.37139067635410317));
#332 = DIRECTION('',(0.3481553119113954,0.3481553119113957,0.8703882797784894));
#333 = AXIS2_PLACEMENT_3D('',#330,#331,#332);
#334 = PLANE('',#333);
#335 = EDGE_LOOP('',(#322,#323,#324,#329));
#336 = FACE_OUTER_BOUND('',#335,.T.);
#337 = ADVANCED_FACE('',(#336),#334,.T.);
#338 = CARTESIAN_POINT('',(-1.445,0.175,-2.5));
#339 = VERTEX_POINT('',#338);
#340 = DIRECTION('',(-0.3481553119113954,0.3481553119113957,0.8703882797784894));
#341 = VECTOR('',#340,1.);
#342 = LINE('',#338,#341);
#343 = EDGE_CURVE('',#339,#259,#342,.T.);
#344 = ORIENTED_EDGE('',*,*,#343,.T.);
#345 = ORIENTED_EDGE('',*,*,#269,.F.);
#346 = ORIENTED_EDGE('',*,*,#321,.T.);
#347 = DIRECTION('',(-1.,0.,0.));
#348 = VECTOR('',#347,1.);
#349 = LINE('',#316,#348);
#350 = EDGE_CURVE('',#317,#339,#349,.T.);
#351 = ORIENTED_EDGE('',*,*,#350,.T.);
#352 = CARTESIAN_POINT('',(-1.445,0.175,-2.5));
#353 = DIRECTION('',(0.,0.9284766908852593,-0.37139067635410344));
#354 = DIRECTION('',(-0.3481553119113954,0.3481553119113957,0.8703882797784894));
#355 = AXIS2_PLACEMENT_3D('',#352,#353,#354);
#356 = PLANE('',#355);
#357 = EDGE_LOOP('',(#344,#345,#346,#351));
#358 = FACE_OUTER_BOUND('',#357,.T.);
#359 = ADVANCED_FACE('',(#358),#356,.T.);
#360 = ORIENTED_EDGE('',*,*,#350,.F.);
#361 = ORIENTED_EDGE('',*,*,#328,.F.);
#362 = ORIENTED_EDGE('',*,*,#246,.T.);
#363 = DIRECTION('',(0.,1.,0.));
#364 = VECTOR('',#363,1.);
#365 = LINE('',#230,#364);
#366 = EDGE_CURVE('',#231,#339,#365,.T.);
#367 = ORIENTED_EDGE('',*,*,#366,.T.);
#368 = CARTESIAN_POINT('',(-1.445,0.175,-2.5));
#369 = DIRECTION('',(0.,0.,-1.));
#370 = DIRECTION('',(1.,0.,0.));
#371 = AXIS2_PLACEMENT_3D('',#368,#369,#370);
#372 = PLANE('',#371);
#373 = EDGE_LOOP('',(#360,#361,#362,#367));
#374 = FACE_OUTER_BOUND('',#373,.T.);
#375 = ADVANCED_FACE('',(#374),#372,.T.);
#376 = ORIENTED_EDGE('',*,*,#366,.F.);
#377 = ORIENTED_EDGE('',*,*,#241,.T.);
#378 = ORIENTED_EDGE('',*,*,#288,.T.);
#379 = ORIENTED_EDGE('',*,*,#343,.F.);
#380 = CARTESIAN_POINT('',(-1.445,0.175,-2.5));
#381 = DIRECTION('',(-0.9284766908852596,0.,-0.3713906763541033));
#382 = DIRECTION('',(0.,-1.,0.));
#383 = AXIS2_PLACEMENT_3D('',#380,#381,#382);
#384 = PLANE('',#383);
#385 = EDGE_LOOP('',(#376,#377,#378,#379));
#386 = FACE_OUTER_BOUND('',#385,.T.);
#387 = ADVANCED_FACE('',(#386),#384,.T.);
#388 = CLOSED_SHELL('',(#199,#227,#255,#283,#303,#315,#337,#359,#375,#387));
#389 = MANIFOLD_SOLID_BREP('',#388);
#390 = COLOUR_RGB('',0.7529411764705882,0.7529411764705882,0.7529411764705882);
#391 = FILL_AREA_STYLE_COLOUR('',#390);
#392 = FILL_AREA_STYLE('',(#391));
#393 = SURFACE_STYLE_FILL_AREA(#392);
#394 = SURFACE_SIDE_STYLE('',(#393));
#395 = SURFACE_STYLE_USAGE(.BOTH.,#394);
#396 = PRESENTATION_STYLE_ASSIGNMENT((#395));
#397 = STYLED_ITEM('',(#396),#389);
#398 = CARTESIAN_POINT('',(-0.9550000000000001,-0.315,2.));
#399 = VERTEX_POINT('',#398);
#400 = CARTESIAN_POINT('',(-0.9550000000000001,-0.315,7.4));
#401 = VERTEX_POINT('',#400);
#402 = CARTESIAN_POINT('',(-1.585,-0.315,7.4));
#403 = VERTEX_POINT('',#402);
#404 = CARTESIAN_POINT('',(-1.585,-0.315,2.));
#405 = VERTEX_POINT('',#404);
#406 = DIRECTION('',(0.,0.,1.));
#407 = VECTOR('',#406,1.);
#408 = LINE('',#398,#407);
#409 = EDGE_CURVE('',#399,#401,#408,.T.);
#410 = ORIENTED_EDGE('',*,*,#409,.T.);
#411 = DIRECTION('',(-1.,0.,0.));
#412 = VECTOR('',#411,1.);
#413 = LINE('',#400,#412);
#414 = EDGE_CURVE('',#401,#403,#413,.T.);
#415 = ORIENTED_EDGE('',*,*,#414,.T.);
#416 = DIRECTION('',(0.,0.,1.));
#417 = VECTOR('',#416,1.);
#418 = LINE('',#404,#417);
#419 = EDGE_CURVE('',#405,#403,#418,.T.);
#420 = ORIENTED_EDGE('',*,*,#419,.F.);
#421 = DIRECTION('',(-1.,0.,0.));
#422 = VECTOR('',#421,1.);
#423 = LINE('',#398,#422);
#424 = EDGE_CURVE('',#399,#405,#423,.T.);
#425 = ORIENTED_EDGE('',*,*,#424,.F.);
#426 = CARTESIAN_POINT('',(-0.9550000000000001,-0.315,2.));
#427 = DIRECTION('',(0.,-1.,0.));
#428 = DIRECTION('',(0.,0.,1.));
#429 = AXIS2_PLACEMENT_3D('',#426,#427,#428);
#430 = PLANE('',#429);
#431 = EDGE_LOOP('',(#410,#415,#420,#425));
#432 = FACE_OUTER_BOUND('',#431,.T.);
#433 = ADVANCED_FACE('',(#432),#430,.T.);
#434 = CARTESIAN_POINT('',(-0.9550000000000001,0.315,7.4));
#435 = VERTEX_POINT('',#434);
#436 = CARTESIAN_POINT('',(-0.9550000000000001,0.315,2.));
#437 = VERTEX_POINT('',#436);
#438 = DIRECTION('',(0.,1.,0.));
#439 = VECTOR('',#438,1.);
#440 = LINE('',#400,#439);
#441 = EDGE_CURVE('',#401,#435,#440,.T.);
#442 = ORIENTED_EDGE('',*,*,#441,.F.);
#443 = ORIENTED_EDGE('',*,*,#409,.F.);
#444 = DIRECTION('',(0.,1.,0.));
#445 = VECTOR('',#444,1.);
#446 = LINE('',#398,#445);
#447 = EDGE_CURVE('',#399,#437,#446,.T.);
#448 = ORIENTED_EDGE('',*,*,#447,.T.);
#449 = DIRECTION('',(0.,0.,1.));
#450 = VECTOR('',#449,1.);
#451 = LINE('',#436,#450);
#452 = EDGE_CURVE('',#437,#435,#451,.T.);
#453 = ORIENTED_EDGE('',*,*,#452,.T.);
#454 = CARTESIAN_POINT('',(-0.9550000000000001,0.315,7.4));
#455 = DIRECTION('',(1.,0.,0.));
#456 = DIRECTION('',(0.,-1.,0.));
#457 = AXIS2_PLACEMENT_3D('',#454,#455,#456);
#458 = PLANE('',#457);
#459 = EDGE_LOOP('',(#442,#443,#448,#453));
#460 = FACE_OUTER_BOUND('',#459,.T.);
#461 = ADVANCED_FACE('',(#460),#458,.T.);
#462 = CARTESIAN_POINT('',(-1.585,0.315,2.));
#463 = VERTEX_POINT('',#462);
#464 = DIRECTION('',(-1.,0.,0.));
#465 = VECTOR('',#464,1.);
#466 = LINE('',#436,#465);
#467 = EDGE_CURVE('',#437,#463,#466,.T.);
#468 = ORIENTED_EDGE('',*,*,#467,.F.);
#469 = ORIENTED_EDGE('',*,*,#447,.F.);
#470 = ORIENTED_EDGE('',*,*,#424,.T.);
#471 = DIRECTION('',(0.,1.,0.));
#472 = VECTOR('',#471,1.);
#473 = LINE('',#404,#472);
#474 = EDGE_CURVE('',#405,#463,#473,.T.);
#475 = ORIENTED_EDGE('',*,*,#474,.T.);
#476 = CARTESIAN_POINT('',(-1.585,0.315,2.));
#477 = DIRECTION('',(0.,0.,-1.));
#478 = DIRECTION('',(1.,0.,0.));
#479 = AXIS2_PLACEMENT_3D('',#476,#477,#478);
#480 = PLANE('',#479);
#481 = EDGE_LOOP('',(#468,#469,#470,#475));
#482 = FACE_OUTER_BOUND('',#481,.T.);
#483 = ADVANCED_FACE('',(#482),#480,.T.);
#484 = CARTESIAN_POINT('',(-1.095,-0.175,8.));
#485 = VERTEX_POINT('',#484);
#486 = CARTESIAN_POINT('',(-1.095,0.175,8.));
#487 = VERTEX_POINT('',#486);
#488 = DIRECTION('',(-0.2215811282415214,0.22158112824152157,0.9496334067493776));
#489 = VECTOR('',#488,1.);
#490 = LINE('',#400,#489);
#491 = EDGE_CURVE('',#401,#485,#490,.T.);
#492 = ORIENTED_EDGE('',*,*,#491,.F.);
#493 = ORIENTED_EDGE('',*,*,#441,.T.);
#494 = DIRECTION('',(-0.2215811282415214,-0.22158112824152157,0.9496334067493776));
#495 = VECTOR('',#494,1.);
#496 = LINE('',#434,#495);
#497 = EDGE_CURVE('',#435,#487,#496,.T.);
#498 = ORIENTED_EDGE('',*,*,#497,.T.);
#499 = DIRECTION('',(0.,1.,0.));
#500 = VECTOR('',#499,1.);
#501 = LINE('',#484,#500);
#502 = EDGE_CURVE('',#485,#487,#501,.T.);
#503 = ORIENTED_EDGE('',*,*,#502,.F.);
#504 = CARTESIAN_POINT('',(-1.095,-0.175,8.));
#505 = DIRECTION('',(0.9738412097417933,0.,0.22722961560641794));
#506 = DIRECTION('',(0.2215811282415214,-0.22158112824152157,-0.9496334067493776));
#507 = AXIS2_PLACEMENT_3D('',#504,#505,#506);
#508 = PLANE('',#507);
#509 = EDGE_LOOP('',(#492,#493,#498,#503));
#510 = FACE_OUTER_BOUND('',#509,.T.);
#511 = ADVANCED_FACE('',(#510),#508,.T.);
#512 = CARTESIAN_POINT('',(-1.445,-0.175,8.));
#513 = VERTEX_POINT('',#512);
#514 = DIRECTION('',(-1.,0.,0.));
#515 = VECTOR('',#514,1.);
#516 = LINE('',#484,#515);
#517 = EDGE_CURVE('',#485,#513,#516,.T.);
#518 = ORIENTED_EDGE('',*,*,#517,.T.);
#519 = DIRECTION('',(-0.2215811282415214,-0.22158112824152157,-0.9496334067493776));
#520 = VECTOR('',#519,1.);
#521 = LINE('',#512,#520);
#522 = EDGE_CURVE('',#513,#403,#521,.T.);
#523 = ORIENTED_EDGE('',*,*,#522,.T.);
#524 = ORIENTED_EDGE('',*,*,#414,.F.);
#525 = ORIENTED_EDGE('',*,*,#491,.T.);
#526 = CARTESIAN_POINT('',(-1.095,-0.175,8.));
#527 = DIRECTION('',(0.,-0.9738412097417931,0.22722961560641836));
#528 = DIRECTION('',(-1.,0.,0.));
#529 = AXIS2_PLACEMENT_3D('',#526,#527,#528);
#530 = PLANE('',#529);
#531 = EDGE_LOOP('',(#518,#523,#524,#525));
#532 = FACE_OUTER_BOUND('',#531,.T.);
#533 = ADVANCED_FACE('',(#532),#530,.T.);
#534 = CARTESIAN_POINT('',(-1.585,0.315,7.4));
#535 = VERTEX_POINT('',#534);
#536 = DIRECTION('',(0.,0.,1.));
#537 = VECTOR('',#536,1.);
#538 = LINE('',#462,#537);
#539 = EDGE_CURVE('',#463,#535,#538,.T.);
#540 = ORIENTED_EDGE('',*,*,#539,.F.);
#541 = ORIENTED_EDGE('',*,*,#474,.F.);
#542 = ORIENTED_EDGE('',*,*,#419,.T.);
#543 = DIRECTION('',(0.,1.,0.));
#544 = VECTOR('',#543,1.);
#545 = LINE('',#402,#544);
#546 = EDGE_CURVE('',#403,#535,#545,.T.);
#547 = ORIENTED_EDGE('',*,*,#546,.T.);
#548 = CARTESIAN_POINT('',(-1.585,0.315,7.4));
#549 = DIRECTION('',(-1.,0.,0.));
#550 = DIRECTION('',(0.,0.,-1.));
#551 = AXIS2_PLACEMENT_3D('',#548,#549,#550);
#552 = PLANE('',#551);
#553 = EDGE_LOOP('',(#540,#541,#542,#547));
#554 = FACE_OUTER_BOUND('',#553,.T.);
#555 = ADVANCED_FACE('',(#554),#552,.T.);
#556 = DIRECTION('',(-1.,0.,0.));
#557 = VECTOR('',#556,1.);
#558 = LINE('',#434,#557);
#559 = EDGE_CURVE('',#435,#535,#558,.T.);
#560 = ORIENTED_EDGE('',*,*,#559,.F.);
#561 = ORIENTED_EDGE('',*,*,#452,.F.);
#562 = ORIENTED_EDGE('',*,*,#467,.T.);
#563 = ORIENTED_EDGE('',*,*,#539,.T.);
#564 = CARTESIAN_POINT('',(-1.585,0.315,7.4));
#565 = DIRECTION('',(0.,1.,0.));
#566 = DIRECTION('',(1.,0.,0.));
#567 = AXIS2_PLACEMENT_3D('',#564,#565,#566);
#568 = PLANE('',#567);
#569 = EDGE_LOOP('',(#560,#561,#562,#563));
#570 = FACE_OUTER_BOUND('',#569,.T.);
#571 = ADVANCED_FACE('',(#570),#568,.T.);
#572 = CARTESIAN_POINT('',(-1.445,0.175,8.));
#573 = VERTEX_POINT('',#572);
#574 = DIRECTION('',(-1.,0.,0.));
#575 = VECTOR('',#574,1.);
#576 = LINE('',#486,#575);
#577 = EDGE_CURVE('',#487,#573,#576,.T.);
#578 = ORIENTED_EDGE('',*,*,#577,.F.);
#579 = ORIENTED_EDGE('',*,*,#497,.F.);
#580 = ORIENTED_EDGE('',*,*,#559,.T.);
#581 = DIRECTION('',(-0.2215811282415214,0.22158112824152157,-0.9496334067493776));
#582 = VECTOR('',#581,1.);
#583 = LINE('',#572,#582);
#584 = EDGE_CURVE('',#573,#535,#583,.T.);
#585 = ORIENTED_EDGE('',*,*,#584,.F.);
#586 = CARTESIAN_POINT('',(-1.445,0.175,8.));
#587 = DIRECTION('',(0.,0.9738412097417931,0.22722961560641836));
#588 = DIRECTION('',(1.,0.,0.));
#589 = AXIS2_PLACEMENT_3D('',#586,#587,#588);
#590 = PLANE('',#589);
#591 = EDGE_LOOP('',(#578,#579,#580,#585));
#592 = FACE_OUTER_BOUND('',#591,.T.);
#593 = ADVANCED_FACE('',(#592),#590,.T.);
#594 = ORIENTED_EDGE('',*,*,#584,.T.);
#595 = ORIENTED_EDGE('',*,*,#546,.F.);
#596 = ORIENTED_EDGE('',*,*,#522,.F.);
#597 = DIRECTION('',(0.,1.,0.));
#598 = VECTOR('',#597,1.);
#599 = LINE('',#512,#598);
#600 = EDGE_CURVE('',#513,#573,#599,.T.);
#601 = ORIENTED_EDGE('',*,*,#600,.T.);
#602 = CARTESIAN_POINT('',(-1.445,0.175,8.));
#603 = DIRECTION('',(-0.9738412097417933,0.,0.22722961560641794));
#604 = DIRECTION('',(-0.2215811282415214,0.22158112824152157,-0.9496334067493776));
#605 = AXIS2_PLACEMENT_3D('',#602,#603,#604);
#606 = PLANE('',#605);
#607 = EDGE_LOOP('',(#594,#595,#596,#601));
#608 = FACE_OUTER_BOUND('',#607,.T.);
#609 = ADVANCED_FACE('',(#608),#606,.T.);
#610 = ORIENTED_EDGE('',*,*,#600,.F.);
#611 = ORIENTED_EDGE('',*,*,#517,.F.);
#612 = ORIENTED_EDGE('',*,*,#502,.T.);
#613 = ORIENTED_EDGE('',*,*,#577,.T.);
#614 = CARTESIAN_POINT('',(-1.445,0.175,8.));
#615 = DIRECTION('',(0.,0.,1.));
#616 = DIRECTION('',(0.,-1.,0.));
#617 = AXIS2_PLACEMENT_3D('',#614,#615,#616);
#618 = PLANE('',#617);
#619 = EDGE_LOOP('',(#610,#611,#612,#613));
#620 = FACE_OUTER_BOUND('',#619,.T.);
#621 = ADVANCED_FACE('',(#620),#618,.T.);
#622 = CLOSED_SHELL('',(#433,#461,#483,#511,#533,#555,#571,#593,#609,#621));
#623 = MANIFOLD_SOLID_BREP('',#622);
#624 = COLOUR_RGB('',0.7529411764705882,0.7529411764705882,0.7529411764705882);
#625 = FILL_AREA_STYLE_COLOUR('',#624);
#626 = FILL_AREA_STYLE('',(#625));
#627 = SURFACE_STYLE_FILL_AREA(#626);
#628 = SURFACE_SIDE_STYLE('',(#627));
#629 = SURFACE_STYLE_USAGE(.BOTH.,#628);
#630 = PRESENTATION_STYLE_ASSIGNMENT((#629));
#631 = STYLED_ITEM('',(#630),#623);
#632 = CARTESIAN_POINT('',(0.,-1.27,0.));
#633 = VERTEX_POINT('',#632);
#634 = CARTESIAN_POINT('',(0.,-1.27,2.));
#635 = VERTEX_POINT('',#634);
#636 = CARTESIAN_POINT('',(0.,1.27,2.));
#637 = VERTEX_POINT('',#636);
#638 = CARTESIAN_POINT('',(0.,1.27,0.));
#639 = VERTEX_POINT('',#638);
#640 = DIRECTION('',(0.,0.,1.));
#641 = VECTOR('',#640,1.);
#642 = LINE('',#632,#641);
#643 = EDGE_CURVE('',#633,#635,#642,.T.);
#644 = ORIENTED_EDGE('',*,*,#643,.T.);
#645 = DIRECTION('',(0.,1.,0.));
#646 = VECTOR('',#645,1.);
#647 = LINE('',#634,#646);
#648 = EDGE_CURVE('',#635,#637,#647,.T.);
#649 = ORIENTED_EDGE('',*,*,#648,.T.);
#650 = DIRECTION('',(0.,0.,1.));
#651 = VECTOR('',#650,1.);
#652 = LINE('',#638,#651);
#653 = EDGE_CURVE('',#639,#637,#652,.T.);
#654 = ORIENTED_EDGE('',*,*,#653,.F.);
#655 = DIRECTION('',(0.,1.,0.));
#656 = VECTOR('',#655,1.);
#657 = LINE('',#632,#656);
#658 = EDGE_CURVE('',#633,#639,#657,.T.);
#659 = ORIENTED_EDGE('',*,*,#658,.F.);
#660 = CARTESIAN_POINT('',(0.,-1.27,0.));
#661 = DIRECTION('',(-1.,0.,0.));
#662 = DIRECTION('',(0.,0.,1.));
#663 = AXIS2_PLACEMENT_3D('',#660,#661,#662);
#664 = PLANE('',#663);
#665 = EDGE_LOOP('',(#644,#649,#654,#659));
#666 = FACE_OUTER_BOUND('',#665,.T.);
#667 = ADVANCED_FACE('',(#666),#664,.T.);
#668 = CARTESIAN_POINT('',(2.54,-1.27,0.));
#669 = VERTEX_POINT('',#668);
#670 = CARTESIAN_POINT('',(2.54,1.27,0.));
#671 = VERTEX_POINT('',#670);
#672 = CARTESIAN_POINT('',(2.54,1.27,2.));
#673 = VERTEX_POINT('',#672);
#674 = CARTESIAN_POINT('',(2.54,-1.27,2.));
#675 = VERTEX_POINT('',#674);
#676 = DIRECTION('',(0.,1.,0.));
#677 = VECTOR('',#676,1.);
#678 = LINE('',#668,#677);
#679 = EDGE_CURVE('',#669,#671,#678,.T.);
#680 = ORIENTED_EDGE('',*,*,#679,.T.);
#681 = DIRECTION('',(0.,0.,1.));
#682 = VECTOR('',#681,1.);
#683 = LINE('',#670,#682);
#684 = EDGE_CURVE('',#671,#673,#683,.T.);
#685 = ORIENTED_EDGE('',*,*,#684,.T.);
#686 = DIRECTION('',(0.,1.,0.));
#687 = VECTOR('',#686,1.);
#688 = LINE('',#674,#687);
#689 = EDGE_CURVE('',#675,#673,#688,.T.);
#690 = ORIENTED_EDGE('',*,*,#689,.F.);
#691 = DIRECTION('',(0.,0.,1.));
#692 = VECTOR('',#691,1.);
#693 = LINE('',#668,#692);
#694 = EDGE_CURVE('',#669,#675,#693,.T.);
#695 = ORIENTED_EDGE('',*,*,#694,.F.);
#696 = CARTESIAN_POINT('',(2.54,-1.27,0.));
#697 = DIRECTION('',(1.,0.,0.));
#698 = DIRECTION('',(0.,1.,0.));
#699 = AXIS2_PLACEMENT_3D('',#696,#697,#698);
#700 = PLANE('',#699);
#701 = EDGE_LOOP('',(#680,#685,#690,#695));
#702 = FACE_OUTER_BOUND('',#701,.T.);
#703 = ADVANCED_FACE('',(#702),#700,.T.);
#704 = DIRECTION('',(1.,0.,0.));
#705 = VECTOR('',#704,1.);
#706 = LINE('',#632,#705);
#707 = EDGE_CURVE('',#633,#669,#706,.T.);
#708 = ORIENTED_EDGE('',*,*,#707,.T.);
#709 = ORIENTED_EDGE('',*,*,#694,.T.);
#710 = DIRECTION('',(1.,0.,0.));
#711 = VECTOR('',#710,1.);
#712 = LINE('',#634,#711);
#713 = EDGE_CURVE('',#635,#675,#712,.T.);
#714 = ORIENTED_EDGE('',*,*,#713,.F.);
#715 = ORIENTED_EDGE('',*,*,#643,.F.);
#716 = CARTESIAN_POINT('',(0.,-1.27,0.));
#717 = DIRECTION('',(0.,-1.,0.));
#718 = DIRECTION('',(1.,0.,0.));
#719 = AXIS2_PLACEMENT_3D('',#716,#717,#718);
#720 = PLANE('',#719);
#721 = EDGE_LOOP('',(#708,#709,#714,#715));
#722 = FACE_OUTER_BOUND('',#721,.T.);
#723 = ADVANCED_FACE('',(#722),#720,.T.);
#724 = ORIENTED_EDGE('',*,*,#653,.T.);
#725 = DIRECTION('',(1.,0.,0.));
#726 = VECTOR('',#725,1.);
#727 = LINE('',#636,#726);
#728 = EDGE_CURVE('',#637,#673,#727,.T.);
#729 = ORIENTED_EDGE('',*,*,#728,.T.);
#730 = ORIENTED_EDGE('',*,*,#684,.F.);
#731 = DIRECTION('',(1.,0.,0.));
#732 = VECTOR('',#731,1.);
#733 = LINE('',#638,#732);
#734 = EDGE_CURVE('',#639,#671,#733,.T.);
#735 = ORIENTED_EDGE('',*,*,#734,.F.);
#736 = CARTESIAN_POINT('',(0.,1.27,0.));
#737 = DIRECTION('',(0.,1.,0.));
#738 = DIRECTION('',(0.,0.,1.));
#739 = AXIS2_PLACEMENT_3D('',#736,#737,#738);
#740 = PLANE('',#739);
#741 = EDGE_LOOP('',(#724,#729,#730,#735));
#742 = FACE_OUTER_BOUND('',#741,.T.);
#743 = ADVANCED_FACE('',(#742),#740,.T.);
#744 = ORIENTED_EDGE('',*,*,#658,.T.);
#745 = ORIENTED_EDGE('',*,*,#734,.T.);
#746 = ORIENTED_EDGE('',*,*,#679,.F.);
#747 = ORIENTED_EDGE('',*,*,#707,.F.);
#748 = CARTESIAN_POINT('',(0.,-1.27,0.));
#749 = DIRECTION('',(0.,0.,-1.));
#750 = DIRECTION('',(0.,1.,0.));
#751 = AXIS2_PLACEMENT_3D('',#748,#749,#750);
#752 = PLANE('',#751);
#753 = EDGE_LOOP('',(#744,#745,#746,#747));
#754 = FACE_OUTER_BOUND('',#753,.T.);
#755 = ADVANCED_FACE('',(#754),#752,.T.);
#756 = ORIENTED_EDGE('',*,*,#713,.T.);
#757 = ORIENTED_EDGE('',*,*,#689,.T.);
#758 = ORIENTED_EDGE('',*,*,#728,.F.);
#759 = ORIENTED_EDGE('',*,*,#648,.F.);
#760 = CARTESIAN_POINT('',(0.,-1.27,2.));
#761 = DIRECTION('',(0.,0.,1.));
#762 = DIRECTION('',(1.,0.,0.));
#763 = AXIS2_PLACEMENT_3D('',#760,#761,#762);
#764 = PLANE('',#763);
#765 = EDGE_LOOP('',(#756,#757,#758,#759));
#766 = FACE_OUTER_BOUND('',#765,.T.);
#767 = ADVANCED_FACE('',(#766),#764,.T.);
#768 = CLOSED_SHELL('',(#667,#703,#723,#743,#755,#767));
#769 = MANIFOLD_SOLID_BREP('',#768);
#770 = COLOUR_RGB('',0.13333333333333333,0.13333333333333333,0.13333333333333333);
#771 = FILL_AREA_STYLE_COLOUR('',#770);
#772 = FILL_AREA_STYLE('',(#771));
#773 = SURFACE_STYLE_FILL_AREA(#772);
#774 = SURFACE_SIDE_STYLE('',(#773));
#775 = SURFACE_STYLE_USAGE(.BOTH.,#774);
#776 = PRESENTATION_STYLE_ASSIGNMENT((#775));
#777 = STYLED_ITEM('',(#776),#769);
#778 = CARTESIAN_POINT('',(1.585,-0.315,0.5500000000000003));
#779 = VERTEX_POINT('',#778);
#780 = CARTESIAN_POINT('',(0.9550000000000001,-0.315,0.5500000000000003));
#781 = VERTEX_POINT('',#780);
#782 = CARTESIAN_POINT('',(0.9550000000000001,-0.315,-2.15));
#783 = VERTEX_POINT('',#782);
#784 = CARTESIAN_POINT('',(1.585,-0.315,-2.15));
#785 = VERTEX_POINT('',#784);
#786 = DIRECTION('',(1.,0.,0.));
#787 = VECTOR('',#786,1.);
#788 = LINE('',#780,#787);
#789 = EDGE_CURVE('',#781,#779,#788,.T.);
#790 = ORIENTED_EDGE('',*,*,#789,.F.);
#791 = DIRECTION('',(0.,0.,1.));
#792 = VECTOR('',#791,1.);
#793 = LINE('',#782,#792);
#794 = EDGE_CURVE('',#783,#781,#793,.T.);
#795 = ORIENTED_EDGE('',*,*,#794,.F.);
#796 = DIRECTION('',(1.,0.,0.));
#797 = VECTOR('',#796,1.);
#798 = LINE('',#782,#797);
#799 = EDGE_CURVE('',#783,#785,#798,.T.);
#800 = ORIENTED_EDGE('',*,*,#799,.T.);
#801 = DIRECTION('',(0.,0.,1.));
#802 = VECTOR('',#801,1.);
#803 = LINE('',#784,#802);
#804 = EDGE_CURVE('',#785,#779,#803,.T.);
#805 = ORIENTED_EDGE('',*,*,#804,.T.);
#806 = CARTESIAN_POINT('',(1.585,-0.315,0.5500000000000003));
#807 = DIRECTION('',(0.,-1.,0.));
#808 = DIRECTION('',(-1.,0.,0.));
#809 = AXIS2_PLACEMENT_3D('',#806,#807,#808);
#810 = PLANE('',#809);
#811 = EDGE_LOOP('',(#790,#795,#800,#805));
#812 = FACE_OUTER_BOUND('',#811,.T.);
#813 = ADVANCED_FACE('',(#812),#810,.T.);
#814 = CARTESIAN_POINT('',(1.585,0.315,-2.15));
#815 = VERTEX_POINT('',#814);
#816 = CARTESIAN_POINT('',(1.585,0.315,0.5500000000000003));
#817 = VERTEX_POINT('',#816);
#818 = ORIENTED_EDGE('',*,*,#804,.F.);
#819 = DIRECTION('',(0.,1.,0.));
#820 = VECTOR('',#819,1.);
#821 = LINE('',#784,#820);
#822 = EDGE_CURVE('',#785,#815,#821,.T.);
#823 = ORIENTED_EDGE('',*,*,#822,.T.);
#824 = DIRECTION('',(0.,0.,1.));
#825 = VECTOR('',#824,1.);
#826 = LINE('',#814,#825);
#827 = EDGE_CURVE('',#815,#817,#826,.T.);
#828 = ORIENTED_EDGE('',*,*,#827,.T.);
#829 = DIRECTION('',(0.,1.,0.));
#830 = VECTOR('',#829,1.);
#831 = LINE('',#778,#830);
#832 = EDGE_CURVE('',#779,#817,#831,.T.);
#833 = ORIENTED_EDGE('',*,*,#832,.F.);
#834 = CARTESIAN_POINT('',(1.585,-0.315,0.5500000000000003));
#835 = DIRECTION('',(1.,0.,0.));
#836 = DIRECTION('',(0.,0.,-1.));
#837 = AXIS2_PLACEMENT_3D('',#834,#835,#836);
#838 = PLANE('',#837);
#839 = EDGE_LOOP('',(#818,#823,#828,#833));
#840 = FACE_OUTER_BOUND('',#839,.T.);
#841 = ADVANCED_FACE('',(#840),#838,.T.);
#842 = CARTESIAN_POINT('',(1.445,-0.175,-2.5));
#843 = VERTEX_POINT('',#842);
#844 = CARTESIAN_POINT('',(1.095,-0.175,-2.5));
#845 = VERTEX_POINT('',#844);
#846 = DIRECTION('',(0.3481553119113954,-0.3481553119113957,0.8703882797784894));
#847 = VECTOR('',#846,1.);
#848 = LINE('',#842,#847);
#849 = EDGE_CURVE('',#843,#785,#848,.T.);
#850 = ORIENTED_EDGE('',*,*,#849,.T.);
#851 = ORIENTED_EDGE('',*,*,#799,.F.);
#852 = DIRECTION('',(0.3481553119113954,0.3481553119113957,-0.8703882797784894));
#853 = VECTOR('',#852,1.);
#854 = LINE('',#782,#853);
#855 = EDGE_CURVE('',#783,#845,#854,.T.);
#856 = ORIENTED_EDGE('',*,*,#855,.T.);
#857 = DIRECTION('',(1.,0.,0.));
#858 = VECTOR('',#857,1.);
#859 = LINE('',#844,#858);
#860 = EDGE_CURVE('',#845,#843,#859,.T.);
#861 = ORIENTED_EDGE('',*,*,#860,.T.);
#862 = CARTESIAN_POINT('',(1.445,-0.175,-2.5));
#863 = DIRECTION('',(0.,-0.9284766908852593,-0.37139067635410344));
#864 = DIRECTION('',(0.3481553119113954,-0.3481553119113957,0.8703882797784894));
#865 = AXIS2_PLACEMENT_3D('',#862,#863,#864);
#866 = PLANE('',#865);
#867 = EDGE_LOOP('',(#850,#851,#856,#861));
#868 = FACE_OUTER_BOUND('',#867,.T.);
#869 = ADVANCED_FACE('',(#868),#866,.T.);
#870 = CARTESIAN_POINT('',(0.9550000000000001,0.315,0.5500000000000003));
#871 = VERTEX_POINT('',#870);
#872 = CARTESIAN_POINT('',(0.9550000000000001,0.315,-2.15));
#873 = VERTEX_POINT('',#872);
#874 = DIRECTION('',(1.,0.,0.));
#875 = VECTOR('',#874,1.);
#876 = LINE('',#870,#875);
#877 = EDGE_CURVE('',#871,#817,#876,.T.);
#878 = ORIENTED_EDGE('',*,*,#877,.T.);
#879 = ORIENTED_EDGE('',*,*,#827,.F.);
#880 = DIRECTION('',(1.,0.,0.));
#881 = VECTOR('',#880,1.);
#882 = LINE('',#872,#881);
#883 = EDGE_CURVE('',#873,#815,#882,.T.);
#884 = ORIENTED_EDGE('',*,*,#883,.F.);
#885 = DIRECTION('',(0.,0.,1.));
#886 = VECTOR('',#885,1.);
#887 = LINE('',#872,#886);
#888 = EDGE_CURVE('',#873,#871,#887,.T.);
#889 = ORIENTED_EDGE('',*,*,#888,.T.);
#890 = CARTESIAN_POINT('',(0.9550000000000001,0.315,0.5500000000000003));
#891 = DIRECTION('',(0.,1.,0.));
#892 = DIRECTION('',(1.,0.,0.));
#893 = AXIS2_PLACEMENT_3D('',#890,#891,#892);
#894 = PLANE('',#893);
#895 = EDGE_LOOP('',(#878,#879,#884,#889));
#896 = FACE_OUTER_BOUND('',#895,.T.);
#897 = ADVANCED_FACE('',(#896),#894,.T.);
#898 = ORIENTED_EDGE('',*,*,#888,.F.);
#899 = DIRECTION('',(0.,1.,0.));
#900 = VECTOR('',#899,1.);
#901 = LINE('',#782,#900);
#902 = EDGE_CURVE('',#783,#873,#901,.T.);
#903 = ORIENTED_EDGE('',*,*,#902,.F.);
#904 = ORIENTED_EDGE('',*,*,#794,.T.);
#905 = DIRECTION('',(0.,1.,0.));
#906 = VECTOR('',#905,1.);
#907 = LINE('',#780,#906);
#908 = EDGE_CURVE('',#781,#871,#907,.T.);
#909 = ORIENTED_EDGE('',*,*,#908,.T.);
#910 = CARTESIAN_POINT('',(0.9550000000000001,0.315,0.5500000000000003));
#911 = DIRECTION('',(-1.,0.,0.));
#912 = DIRECTION('',(0.,0.,-1.));
#913 = AXIS2_PLACEMENT_3D('',#910,#911,#912);
#914 = PLANE('',#913);
#915 = EDGE_LOOP('',(#898,#903,#904,#909));
#916 = FACE_OUTER_BOUND('',#915,.T.);
#917 = ADVANCED_FACE('',(#916),#914,.T.);
#918 = ORIENTED_EDGE('',*,*,#908,.F.);
#919 = ORIENTED_EDGE('',*,*,#789,.T.);
#920 = ORIENTED_EDGE('',*,*,#832,.T.);
#921 = ORIENTED_EDGE('',*,*,#877,.F.);
#922 = CARTESIAN_POINT('',(0.9550000000000001,0.315,0.5500000000000003));
#923 = DIRECTION('',(0.,0.,1.));
#924 = DIRECTION('',(0.,-1.,0.));
#925 = AXIS2_PLACEMENT_3D('',#922,#923,#924);
#926 = PLANE('',#925);
#927 = EDGE_LOOP('',(#918,#919,#920,#921));
#928 = FACE_OUTER_BOUND('',#927,.T.);
#929 = ADVANCED_FACE('',(#928),#926,.T.);
#930 = CARTESIAN_POINT('',(1.445,0.175,-2.5));
#931 = VERTEX_POINT('',#930);
#932 = DIRECTION('',(0.3481553119113954,0.3481553119113957,0.8703882797784894));
#933 = VECTOR('',#932,1.);
#934 = LINE('',#930,#933);
#935 = EDGE_CURVE('',#931,#815,#934,.T.);
#936 = ORIENTED_EDGE('',*,*,#935,.T.);
#937 = ORIENTED_EDGE('',*,*,#822,.F.);
#938 = ORIENTED_EDGE('',*,*,#849,.F.);
#939 = DIRECTION('',(0.,1.,0.));
#940 = VECTOR('',#939,1.);
#941 = LINE('',#842,#940);
#942 = EDGE_CURVE('',#843,#931,#941,.T.);
#943 = ORIENTED_EDGE('',*,*,#942,.T.);
#944 = CARTESIAN_POINT('',(1.445,0.175,-2.5));
#945 = DIRECTION('',(0.9284766908852596,0.,-0.37139067635410317));
#946 = DIRECTION('',(0.3481553119113954,0.3481553119113957,0.8703882797784894));
#947 = AXIS2_PLACEMENT_3D('',#944,#945,#946);
#948 = PLANE('',#947);
#949 = EDGE_LOOP('',(#936,#937,#938,#943));
#950 = FACE_OUTER_BOUND('',#949,.T.);
#951 = ADVANCED_FACE('',(#950),#948,.T.);
#952 = CARTESIAN_POINT('',(1.095,0.175,-2.5));
#953 = VERTEX_POINT('',#952);
#954 = DIRECTION('',(0.3481553119113954,-0.3481553119113957,-0.8703882797784894));
#955 = VECTOR('',#954,1.);
#956 = LINE('',#872,#955);
#957 = EDGE_CURVE('',#873,#953,#956,.T.);
#958 = ORIENTED_EDGE('',*,*,#957,.F.);
#959 = ORIENTED_EDGE('',*,*,#883,.T.);
#960 = ORIENTED_EDGE('',*,*,#935,.F.);
#961 = DIRECTION('',(1.,0.,0.));
#962 = VECTOR('',#961,1.);
#963 = LINE('',#952,#962);
#964 = EDGE_CURVE('',#953,#931,#963,.T.);
#965 = ORIENTED_EDGE('',*,*,#964,.F.);
#966 = CARTESIAN_POINT('',(1.095,0.175,-2.5));
#967 = DIRECTION('',(0.,0.9284766908852593,-0.37139067635410344));
#968 = DIRECTION('',(-0.3481553119113954,0.3481553119113957,0.8703882797784894));
#969 = AXIS2_PLACEMENT_3D('',#966,#967,#968);
#970 = PLANE('',#969);
#971 = EDGE_LOOP('',(#958,#959,#960,#965));
#972 = FACE_OUTER_BOUND('',#971,.T.);
#973 = ADVANCED_FACE('',(#972),#970,.T.);
#974 = ORIENTED_EDGE('',*,*,#964,.T.);
#975 = ORIENTED_EDGE('',*,*,#942,.F.);
#976 = ORIENTED_EDGE('',*,*,#860,.F.);
#977 = DIRECTION('',(0.,1.,0.));
#978 = VECTOR('',#977,1.);
#979 = LINE('',#844,#978);
#980 = EDGE_CURVE('',#845,#953,#979,.T.);
#981 = ORIENTED_EDGE('',*,*,#980,.T.);
#982 = CARTESIAN_POINT('',(1.095,0.175,-2.5));
#983 = DIRECTION('',(0.,0.,-1.));
#984 = DIRECTION('',(1.,0.,0.));
#985 = AXIS2_PLACEMENT_3D('',#982,#983,#984);
#986 = PLANE('',#985);
#987 = EDGE_LOOP('',(#974,#975,#976,#981));
#988 = FACE_OUTER_BOUND('',#987,.T.);
#989 = ADVANCED_FACE('',(#988),#986,.T.);
#990 = ORIENTED_EDGE('',*,*,#980,.F.);
#991 = ORIENTED_EDGE('',*,*,#855,.F.);
#992 = ORIENTED_EDGE('',*,*,#902,.T.);
#993 = ORIENTED_EDGE('',*,*,#957,.T.);
#994 = CARTESIAN_POINT('',(1.095,0.175,-2.5));
#995 = DIRECTION('',(-0.9284766908852596,0.,-0.3713906763541033));
#996 = DIRECTION('',(0.,-1.,0.));
#997 = AXIS2_PLACEMENT_3D('',#994,#995,#996);
#998 = PLANE('',#997);
#999 = EDGE_LOOP('',(#990,#991,#992,#993));
#1000 = FACE_OUTER_BOUND('',#999,.T.);
#1001 = ADVANCED_FACE('',(#1000),#998,.T.);
#1002 = CLOSED_SHELL('',(#813,#841,#869,#897,#917,#929,#951,#973,#989,#1001));
#1003 = MANIFOLD_SOLID_BREP('',#1002);
#1004 = COLOUR_RGB('',0.7529411764705882,0.7529411764705882,0.7529411764705882);
#1005 = FILL_AREA_STYLE_COLOUR('',#1004);
#1006 = FILL_AREA_STYLE('',(#1005));
#1007 = SURFACE_STYLE_FILL_AREA(#1006);
#1008 = SURFACE_SIDE_STYLE('',(#1007));
#1009 = SURFACE_STYLE_USAGE(.BOTH.,#1008);
#1010 = PRESENTATION_STYLE_ASSIGNMENT((#1009));
#1011 = STYLED_ITEM('',(#1010),#1003);
#1012 = CARTESIAN_POINT('',(0.9550000000000001,0.315,7.4));
#1013 = VERTEX_POINT('',#1012);
#1014 = CARTESIAN_POINT('',(1.585,0.315,7.4));
#1015 = VERTEX_POINT('',#1014);
#1016 = CARTESIAN_POINT('',(1.585,0.315,2.));
#1017 = VERTEX_POINT('',#1016);
#1018 = CARTESIAN_POINT('',(0.9550000000000001,0.315,2.));
#1019 = VERTEX_POINT('',#1018);
#1020 = DIRECTION('',(1.,0.,0.));
#1021 = VECTOR('',#1020,1.);
#1022 = LINE('',#1012,#1021);
#1023 = EDGE_CURVE('',#1013,#1015,#1022,.T.);
#1024 = ORIENTED_EDGE('',*,*,#1023,.T.);
#1025 = DIRECTION('',(0.,0.,1.));
#1026 = VECTOR('',#1025,1.);
#1027 = LINE('',#1016,#1026);
#1028 = EDGE_CURVE('',#1017,#1015,#1027,.T.);
#1029 = ORIENTED_EDGE('',*,*,#1028,.F.);
#1030 = DIRECTION('',(1.,0.,0.));
#1031 = VECTOR('',#1030,1.);
#1032 = LINE('',#1018,#1031);
#1033 = EDGE_CURVE('',#1019,#1017,#1032,.T.);
#1034 = ORIENTED_EDGE('',*,*,#1033,.F.);
#1035 = DIRECTION('',(0.,0.,1.));
#1036 = VECTOR('',#1035,1.);
#1037 = LINE('',#1018,#1036);
#1038 = EDGE_CURVE('',#1019,#1013,#1037,.T.);
#1039 = ORIENTED_EDGE('',*,*,#1038,.T.);
#1040 = CARTESIAN_POINT('',(0.9550000000000001,0.315,7.4));
#1041 = DIRECTION('',(0.,1.,0.));
#1042 = DIRECTION('',(1.,0.,0.));
#1043 = AXIS2_PLACEMENT_3D('',#1040,#1041,#1042);
#1044 = PLANE('',#1043);
#1045 = EDGE_LOOP('',(#1024,#1029,#1034,#1039));
#1046 = FACE_OUTER_BOUND('',#1045,.T.);
#1047 = ADVANCED_FACE('',(#1046),#1044,.T.);
#1048 = CARTESIAN_POINT('',(0.9550000000000001,-0.315,2.));
#1049 = VERTEX_POINT('',#1048);
#1050 = CARTESIAN_POINT('',(0.9550000000000001,-0.315,7.4));
#1051 = VERTEX_POINT('',#1050);
#1052 = ORIENTED_EDGE('',*,*,#1038,.F.);
#1053 = DIRECTION('',(0.,1.,0.));
#1054 = VECTOR('',#1053,1.);
#1055 = LINE('',#1048,#1054);
#1056 = EDGE_CURVE('',#1049,#1019,#1055,.T.);
#1057 = ORIENTED_EDGE('',*,*,#1056,.F.);
#1058 = DIRECTION('',(0.,0.,1.));
#1059 = VECTOR('',#1058,1.);
#1060 = LINE('',#1048,#1059);
#1061 = EDGE_CURVE('',#1049,#1051,#1060,.T.);
#1062 = ORIENTED_EDGE('',*,*,#1061,.T.);
#1063 = DIRECTION('',(0.,1.,0.));
#1064 = VECTOR('',#1063,1.);
#1065 = LINE('',#1050,#1064);
#1066 = EDGE_CURVE('',#1051,#1013,#1065,.T.);
#1067 = ORIENTED_EDGE('',*,*,#1066,.T.);
#1068 = CARTESIAN_POINT('',(0.9550000000000001,0.315,7.4));
#1069 = DIRECTION('',(-1.,0.,0.));
#1070 = DIRECTION('',(0.,0.,-1.));
#1071 = AXIS2_PLACEMENT_3D('',#1068,#1069,#1070);
#1072 = PLANE('',#1071);
#1073 = EDGE_LOOP('',(#1052,#1057,#1062,#1067));
#1074 = FACE_OUTER_BOUND('',#1073,.T.);
#1075 = ADVANCED_FACE('',(#1074),#1072,.T.);
#1076 = CARTESIAN_POINT('',(1.445,-0.175,8.));
#1077 = VERTEX_POINT('',#1076);
#1078 = CARTESIAN_POINT('',(1.095,-0.175,8.));
#1079 = VERTEX_POINT('',#1078);
#1080 = CARTESIAN_POINT('',(1.585,-0.315,7.4));
#1081 = VERTEX_POINT('',#1080);
#1082 = DIRECTION('',(1.,0.,0.));
#1083 = VECTOR('',#1082,1.);
#1084 = LINE('',#1078,#1083);
#1085 = EDGE_CURVE('',#1079,#1077,#1084,.T.);
#1086 = ORIENTED_EDGE('',*,*,#1085,.F.);
#1087 = DIRECTION('',(0.2215811282415214,0.22158112824152157,0.9496334067493776));
#1088 = VECTOR('',#1087,1.);
#1089 = LINE('',#1050,#1088);
#1090 = EDGE_CURVE('',#1051,#1079,#1089,.T.);
#1091 = ORIENTED_EDGE('',*,*,#1090,.F.);
#1092 = DIRECTION('',(1.,0.,0.));
#1093 = VECTOR('',#1092,1.);
#1094 = LINE('',#1050,#1093);
#1095 = EDGE_CURVE('',#1051,#1081,#1094,.T.);
#1096 = ORIENTED_EDGE('',*,*,#1095,.T.);
#1097 = DIRECTION('',(0.2215811282415214,-0.22158112824152157,-0.9496334067493776));
#1098 = VECTOR('',#1097,1.);
#1099 = LINE('',#1076,#1098);
#1100 = EDGE_CURVE('',#1077,#1081,#1099,.T.);
#1101 = ORIENTED_EDGE('',*,*,#1100,.F.);
#1102 = CARTESIAN_POINT('',(1.445,-0.175,8.));
#1103 = DIRECTION('',(0.,-0.9738412097417931,0.22722961560641836));
#1104 = DIRECTION('',(-1.,0.,0.));
#1105 = AXIS2_PLACEMENT_3D('',#1102,#1103,#1104);
#1106 = PLANE('',#1105);
#1107 = EDGE_LOOP('',(#1086,#1091,#1096,#1101));
#1108 = FACE_OUTER_BOUND('',#1107,.T.);
#1109 = ADVANCED_FACE('',(#1108),#1106,.T.);
#1110 = CARTESIAN_POINT('',(1.585,-0.315,2.));
#1111 = VERTEX_POINT('',#1110);
#1112 = DIRECTION('',(0.,1.,0.));
#1113 = VECTOR('',#1112,1.);
#1114 = LINE('',#1110,#1113);
#1115 = EDGE_CURVE('',#1111,#1017,#1114,.T.);
#1116 = ORIENTED_EDGE('',*,*,#1115,.T.);
#1117 = ORIENTED_EDGE('',*,*,#1028,.T.);
#1118 = DIRECTION('',(0.,1.,0.));
#1119 = VECTOR('',#1118,1.);
#1120 = LINE('',#1080,#1119);
#1121 = EDGE_CURVE('',#1081,#1015,#1120,.T.);
#1122 = ORIENTED_EDGE('',*,*,#1121,.F.);
#1123 = DIRECTION('',(0.,0.,1.));
#1124 = VECTOR('',#1123,1.);
#1125 = LINE('',#1110,#1124);
#1126 = EDGE_CURVE('',#1111,#1081,#1125,.T.);
#1127 = ORIENTED_EDGE('',*,*,#1126,.F.);
#1128 = CARTESIAN_POINT('',(1.585,-0.315,2.));
#1129 = DIRECTION('',(1.,0.,0.));
#1130 = DIRECTION('',(0.,1.,0.));
#1131 = AXIS2_PLACEMENT_3D('',#1128,#1129,#1130);
#1132 = PLANE('',#1131);
#1133 = EDGE_LOOP('',(#1116,#1117,#1122,#1127));
#1134 = FACE_OUTER_BOUND('',#1133,.T.);
#1135 = ADVANCED_FACE('',(#1134),#1132,.T.);
#1136 = ORIENTED_EDGE('',*,*,#1126,.T.);
#1137 = ORIENTED_EDGE('',*,*,#1095,.F.);
#1138 = ORIENTED_EDGE('',*,*,#1061,.F.);
#1139 = DIRECTION('',(1.,0.,0.));
#1140 = VECTOR('',#1139,1.);
#1141 = LINE('',#1048,#1140);
#1142 = EDGE_CURVE('',#1049,#1111,#1141,.T.);
#1143 = ORIENTED_EDGE('',*,*,#1142,.T.);
#1144 = CARTESIAN_POINT('',(1.585,-0.315,2.));
#1145 = DIRECTION('',(0.,-1.,0.));
#1146 = DIRECTION('',(0.,0.,1.));
#1147 = AXIS2_PLACEMENT_3D('',#1144,#1145,#1146);
#1148 = PLANE('',#1147);
#1149 = EDGE_LOOP('',(#1136,#1137,#1138,#1143));
#1150 = FACE_OUTER_BOUND('',#1149,.T.);
#1151 = ADVANCED_FACE('',(#1150),#1148,.T.);
#1152 = ORIENTED_EDGE('',*,*,#1142,.F.);
#1153 = ORIENTED_EDGE('',*,*,#1056,.T.);
#1154 = ORIENTED_EDGE('',*,*,#1033,.T.);
#1155 = ORIENTED_EDGE('',*,*,#1115,.F.);
#1156 = CARTESIAN_POINT('',(1.585,-0.315,2.));
#1157 = DIRECTION('',(0.,0.,-1.));
#1158 = DIRECTION('',(-1.,0.,0.));
#1159 = AXIS2_PLACEMENT_3D('',#1156,#1157,#1158);
#1160 = PLANE('',#1159);
#1161 = EDGE_LOOP('',(#1152,#1153,#1154,#1155));
#1162 = FACE_OUTER_BOUND('',#1161,.T.);
#1163 = ADVANCED_FACE('',(#1162),#1160,.T.);
#1164 = CARTESIAN_POINT('',(1.095,0.175,8.));
#1165 = VERTEX_POINT('',#1164);
#1166 = DIRECTION('',(0.2215811282415214,-0.22158112824152157,0.9496334067493776));
#1167 = VECTOR('',#1166,1.);
#1168 = LINE('',#1012,#1167);
#1169 = EDGE_CURVE('',#1013,#1165,#1168,.T.);
#1170 = ORIENTED_EDGE('',*,*,#1169,.F.);
#1171 = ORIENTED_EDGE('',*,*,#1066,.F.);
#1172 = ORIENTED_EDGE('',*,*,#1090,.T.);
#1173 = DIRECTION('',(0.,1.,0.));
#1174 = VECTOR('',#1173,1.);
#1175 = LINE('',#1078,#1174);
#1176 = EDGE_CURVE('',#1079,#1165,#1175,.T.);
#1177 = ORIENTED_EDGE('',*,*,#1176,.T.);
#1178 = CARTESIAN_POINT('',(1.095,0.175,8.));
#1179 = DIRECTION('',(-0.9738412097417933,0.,0.22722961560641794));
#1180 = DIRECTION('',(-0.2215811282415214,0.22158112824152157,-0.9496334067493776));
#1181 = AXIS2_PLACEMENT_3D('',#1178,#1179,#1180);
#1182 = PLANE('',#1181);
#1183 = EDGE_LOOP('',(#1170,#1171,#1172,#1177));
#1184 = FACE_OUTER_BOUND('',#1183,.T.);
#1185 = ADVANCED_FACE('',(#1184),#1182,.T.);
#1186 = CARTESIAN_POINT('',(1.445,0.175,8.));
#1187 = VERTEX_POINT('',#1186);
#1188 = DIRECTION('',(0.2215811282415214,0.22158112824152157,-0.9496334067493776));
#1189 = VECTOR('',#1188,1.);
#1190 = LINE('',#1186,#1189);
#1191 = EDGE_CURVE('',#1187,#1015,#1190,.T.);
#1192 = ORIENTED_EDGE('',*,*,#1191,.T.);
#1193 = ORIENTED_EDGE('',*,*,#1023,.F.);
#1194 = ORIENTED_EDGE('',*,*,#1169,.T.);
#1195 = DIRECTION('',(1.,0.,0.));
#1196 = VECTOR('',#1195,1.);
#1197 = LINE('',#1164,#1196);
#1198 = EDGE_CURVE('',#1165,#1187,#1197,.T.);
#1199 = ORIENTED_EDGE('',*,*,#1198,.T.);
#1200 = CARTESIAN_POINT('',(1.445,0.175,8.));
#1201 = DIRECTION('',(0.,0.9738412097417931,0.2272296156064184));
#1202 = DIRECTION('',(0.2215811282415214,0.22158112824152157,-0.9496334067493776));
#1203 = AXIS2_PLACEMENT_3D('',#1200,#1201,#1202);
#1204 = PLANE('',#1203);
#1205 = EDGE_LOOP('',(#1192,#1193,#1194,#1199));
#1206 = FACE_OUTER_BOUND('',#1205,.T.);
#1207 = ADVANCED_FACE('',(#1206),#1204,.T.);
#1208 = ORIENTED_EDGE('',*,*,#1198,.F.);
#1209 = ORIENTED_EDGE('',*,*,#1176,.F.);
#1210 = ORIENTED_EDGE('',*,*,#1085,.T.);
#1211 = DIRECTION('',(0.,1.,0.));
#1212 = VECTOR('',#1211,1.);
#1213 = LINE('',#1076,#1212);
#1214 = EDGE_CURVE('',#1077,#1187,#1213,.T.);
#1215 = ORIENTED_EDGE('',*,*,#1214,.T.);
#1216 = CARTESIAN_POINT('',(1.445,0.175,8.));
#1217 = DIRECTION('',(0.,0.,1.));
#1218 = DIRECTION('',(-1.,0.,0.));
#1219 = AXIS2_PLACEMENT_3D('',#1216,#1217,#1218);
#1220 = PLANE('',#1219);
#1221 = EDGE_LOOP('',(#1208,#1209,#1210,#1215));
#1222 = FACE_OUTER_BOUND('',#1221,.T.);
#1223 = ADVANCED_FACE('',(#1222),#1220,.T.);
#1224 = ORIENTED_EDGE('',*,*,#1214,.F.);
#1225 = ORIENTED_EDGE('',*,*,#1100,.T.);
#1226 = ORIENTED_EDGE('',*,*,#1121,.T.);
#1227 = ORIENTED_EDGE('',*,*,#1191,.F.);
#1228 = CARTESIAN_POINT('',(1.445,0.175,8.));
#1229 = DIRECTION('',(0.9738412097417933,0.,0.2272296156064181));
#1230 = DIRECTION('',(0.,-1.,0.));
#1231 = AXIS2_PLACEMENT_3D('',#1228,#1229,#1230);
#1232 = PLANE('',#1231);
#1233 = EDGE_LOOP('',(#1224,#1225,#1226,#1227));
#1234 = FACE_OUTER_BOUND('',#1233,.T.);
#1235 = ADVANCED_FACE('',(#1234),#1232,.T.);
#1236 = CLOSED_SHELL('',(#1047,#1075,#1109,#1135,#1151,#1163,#1185,#1207,#1223,#1235));
#1237 = MANIFOLD_SOLID_BREP('',#1236);
#1238 = COLOUR_RGB('',0.7529411764705882,0.7529411764705882,0.7529411764705882);
#1239 = FILL_AREA_STYLE_COLOUR('',#1238);
#1240 = FILL_AREA_STYLE('',(#1239));
#1241 = SURFACE_STYLE_FILL_AREA(#1240);
#1242 = SURFACE_SIDE_STYLE('',(#1241));
#1243 = SURFACE_STYLE_USAGE(.BOTH.,#1242);
#1244 = PRESENTATION_STYLE_ASSIGNMENT((#1243));
#1245 = STYLED_ITEM('',(#1244),#1237);
#1246 = ADVANCED_BREP_SHAPE_REPRESENTATION('',(#17,#155,#389,#623,#769,#1003,#1237),#13);
#1247 = SHAPE_DEFINITION_REPRESENTATION(#8,#1246);
#1248 = MECHANICAL_DESIGN_GEOMETRIC_PRESENTATION_REPRESENTATION('',(#163,#397,#631,#777,#1011,#1245),#13);
ENDSEC;
END-ISO-10303-21;