%TF.GenerationSoftware,KiCad,Pcbnew,10.0.5*%
%TF.CreationDate,2026-10-02T12:01:58+02:00*%
%TF.ProjectId,index,696e6465-782e-46b6-9963-61645f706362,rev?*%
%TF.SameCoordinates,Original*%
%TF.FileFunction,Legend,Bot*%
%TF.FilePolarity,Positive*%
%FSLAX46Y46*%
G04 Gerber Fmt 4.6, Leading zero omitted, Abs format (unit mm)*
G04 Created by KiCad (PCBNEW 10.0.5) date 2026-10-02 12:01:58*
%MOMM*%
%LPD*%
G01*
G04 APERTURE LIST*
%ADD10C,2.750000*%
%ADD11C,1.800000*%
%ADD12C,1.500000*%
%ADD13R,1.500000X1.500000*%
%ADD14C,0.599999*%
%ADD15O,1.199998X1.999996*%
%ADD16O,1.199998X1.799996*%
%ADD17C,2.700000*%
G04 APERTURE END LIST*
%LPC*%
D10*
%TO.C,*%
X79000000Y72730000D03*
%TD*%
D11*
%TO.C,J_USB_LINK*%
X94500000Y110960000D03*
X94500000Y113500000D03*
X94500000Y116040000D03*
%TD*%
D12*
%TO.C,TP_5V*%
X36000000Y109000000D03*
%TD*%
%TO.C,TP_GND*%
X30000000Y109000000D03*
%TD*%
D13*
%TO.C,J_BAT*%
X85000000Y87460000D03*
D12*
X85000000Y90000000D03*
X85000000Y92540000D03*
%TD*%
D14*
%TO.C,J_USB*%
X77899918Y117694433D03*
X72100082Y117694433D03*
D15*
X70674888Y117194307D03*
D16*
X70674888Y121374131D03*
X79325112Y121374131D03*
D15*
X79325112Y117194307D03*
%TD*%
D13*
%TO.C,J_SPEAKER*%
X69270000Y80000000D03*
D12*
X66730000Y80000000D03*
%TD*%
D11*
%TO.C,J_PI*%
X74130000Y98270000D03*
X74130000Y95730000D03*
X71590000Y98270000D03*
X71590000Y95730000D03*
X69050000Y98270000D03*
X69050000Y95730000D03*
X66510000Y98270000D03*
X66510000Y95730000D03*
X63970000Y98270000D03*
X63970000Y95730000D03*
X61430000Y98270000D03*
X61430000Y95730000D03*
X58890000Y98270000D03*
X58890000Y95730000D03*
X56350000Y98270000D03*
X56350000Y95730000D03*
X53810000Y98270000D03*
X53810000Y95730000D03*
X51270000Y98270000D03*
X51270000Y95730000D03*
X48730000Y98270000D03*
X48730000Y95730000D03*
X46190000Y98270000D03*
X46190000Y95730000D03*
X43650000Y98270000D03*
X43650000Y95730000D03*
X41110000Y98270000D03*
X41110000Y95730000D03*
X38570000Y98270000D03*
X38570000Y95730000D03*
X36030000Y98270000D03*
X36030000Y95730000D03*
X33490000Y98270000D03*
X33490000Y95730000D03*
X30950000Y98270000D03*
X30950000Y95730000D03*
X28410000Y98270000D03*
X28410000Y95730000D03*
X25870000Y98270000D03*
X25870000Y95730000D03*
%TD*%
D17*
%TO.C,*%
X96000000Y120000000D03*
%TD*%
D10*
%TO.C,*%
X21000000Y72730000D03*
%TD*%
%TO.C,*%
X79000000Y95730000D03*
%TD*%
D13*
%TO.C,J_OFF*%
X85270000Y107000000D03*
D12*
X82730000Y107000000D03*
%TD*%
D17*
%TO.C,*%
X4000000Y120000000D03*
%TD*%
D10*
%TO.C,*%
X21000000Y95730000D03*
%TD*%
D17*
%TO.C,*%
X96000000Y4000000D03*
%TD*%
%TO.C,*%
X4000000Y4000000D03*
%TD*%
D12*
%TO.C,TP_3V3*%
X42000000Y109000000D03*
%TD*%
%LPD*%
M02*
