%TF.GenerationSoftware,KiCad,Pcbnew,10.0.5*%
%TF.CreationDate,2026-10-02T08:00:26+02:00*%
%TF.ProjectId,index,696e6465-782e-46b6-9963-61645f706362,rev?*%
%TF.SameCoordinates,Original*%
%TF.FileFunction,Paste,Bot*%
%TF.FilePolarity,Positive*%
%FSLAX46Y46*%
G04 Gerber Fmt 4.6, Leading zero omitted, Abs format (unit mm)*
G04 Created by KiCad (PCBNEW 10.0.5) date 2026-10-02 08:00:26*
%MOMM*%
%LPD*%
G01*
G04 APERTURE LIST*
G04 Aperture macros list*
%AMRoundRect*
0 Rectangle with rounded corners*
0 $1 Rounding radius*
0 $2 $3 $4 $5 $6 $7 $8 $9 X,Y pos of 4 corners*
0 Add a 4 corners polygon primitive as box body*
4,1,4,$2,$3,$4,$5,$6,$7,$8,$9,$2,$3,0*
0 Add four circle primitives for the rounded corners*
1,1,$1+$1,$2,$3*
1,1,$1+$1,$4,$5*
1,1,$1+$1,$6,$7*
1,1,$1+$1,$8,$9*
0 Add four rect primitives between the rounded corners*
20,1,$1+$1,$2,$3,$4,$5,0*
20,1,$1+$1,$4,$5,$6,$7,0*
20,1,$1+$1,$6,$7,$8,$9,0*
20,1,$1+$1,$8,$9,$2,$3,0*%
%AMFreePoly0*
4,1,9,0.000013,0.649935,0.299987,0.649935,0.299987,-0.650088,-0.000013,-0.650088,-0.000013,-0.649935,-0.299987,-0.649935,-0.299987,0.650088,0.000013,0.650088,0.000013,0.649935,0.000013,0.649935,$1*%
%AMFreePoly1*
4,1,5,0.300012,-0.649986,-0.300012,-0.649986,-0.300012,0.649986,0.300012,0.649986,0.300012,-0.649986,0.300012,-0.649986,$1*%
%AMFreePoly2*
4,1,9,0.000038,0.649973,0.299987,0.649973,0.299987,-0.649999,-0.000038,-0.649999,-0.000038,-0.649973,-0.299987,-0.649973,-0.299987,0.649999,0.000038,0.649999,0.000038,0.649973,0.000038,0.649973,$1*%
G04 Aperture macros list end*
%ADD10R,0.299999X1.299997*%
%ADD11FreePoly0,0.000000*%
%ADD12FreePoly1,0.000000*%
%ADD13FreePoly2,0.000000*%
%ADD14RoundRect,0.300000X0.000010X0.849997X-0.000010X0.849997X-0.000010X-0.849997X0.000010X-0.849997X0*%
%ADD15R,0.622300X1.104900*%
%ADD16R,0.800000X0.950000*%
%ADD17R,1.025000X1.400000*%
%ADD18R,1.250010X0.299999*%
%ADD19R,2.499995X1.999996*%
G04 APERTURE END LIST*
D10*
%TO.C,J_USB*%
X73249940Y116425957D03*
X73750066Y116425957D03*
X74249938Y116425957D03*
X74750064Y116425957D03*
X75249936Y116425957D03*
X75750062Y116425957D03*
X76249680Y116425957D03*
X76750060Y116425957D03*
D11*
X71800045Y116425957D03*
D12*
X78200006Y116425856D03*
X77400160Y116425856D03*
D13*
X72600043Y116426021D03*
%TD*%
D14*
%TO.C,U_KEYS*%
X58255000Y48942479D03*
X56985000Y48942479D03*
X55715000Y48942479D03*
X54445000Y48942479D03*
X53175000Y48942479D03*
X51905000Y48942479D03*
X50635000Y48942479D03*
X49365000Y48942479D03*
X48095000Y48942479D03*
X46825000Y48942479D03*
X45555000Y48942479D03*
X44285000Y48942479D03*
X43015000Y48942479D03*
X41745000Y48942479D03*
X41745000Y59057521D03*
X43015000Y59057521D03*
X44285000Y59057521D03*
X45555000Y59057521D03*
X46825000Y59057521D03*
X48095000Y59057521D03*
X49365000Y59057521D03*
X50635000Y59057521D03*
X51905000Y59057521D03*
X53175000Y59057521D03*
X54445000Y59057521D03*
X55715000Y59057521D03*
X56985000Y59057521D03*
X58255000Y59057521D03*
%TD*%
D15*
%TO.C,U_LCD_PWR*%
X15949706Y60700028D03*
X15000508Y60700028D03*
X14050294Y60700028D03*
X14050294Y63299972D03*
X15949706Y63299972D03*
%TD*%
D16*
%TO.C,C_LCD_OUT*%
X11825000Y65000000D03*
X10175000Y65000000D03*
%TD*%
D17*
%TO.C,C_KEYS_BULK*%
X56087500Y45000000D03*
X57912500Y45000000D03*
%TD*%
D16*
%TO.C,C_KEYS*%
X48095000Y46500000D03*
X46445000Y46500000D03*
%TD*%
%TO.C,C_LCD_IN*%
X11825000Y59000000D03*
X10175000Y59000000D03*
%TD*%
D18*
%TO.C,J_LCD*%
X14600022Y77750047D03*
X14600022Y78249919D03*
X14600022Y78750045D03*
X14600022Y79249917D03*
X14600022Y79750043D03*
X14600022Y80249915D03*
X14600022Y80750041D03*
X14600022Y81249913D03*
X14600022Y81750039D03*
X14600022Y82249911D03*
X14600022Y82750037D03*
X14600022Y83249909D03*
X14599971Y83749806D03*
X14599971Y84249932D03*
X14599971Y84749804D03*
X14599971Y85249930D03*
X14599971Y85749802D03*
X14599971Y86249928D03*
D19*
X12024970Y76060007D03*
X12059997Y87939993D03*
%TD*%
D16*
%TO.C,R_RESET*%
X56825000Y63000000D03*
X55175000Y63000000D03*
%TD*%
M02*
