M48
; DRILL file KiCad 10.0.5 date 2026-10-02T12:01:58
; FORMAT={-:-/ absolute / metric / decimal}
; #@! TF.CreationDate,2026-10-02T12:01:58+02:00
; #@! TF.GenerationSoftware,Kicad,Pcbnew,10.0.5
; #@! TF.FileFunction,Plated,1,4,PTH
FMAT,2
METRIC
; #@! TA.AperFunction,Plated,PTH,ViaDrill
T1C0.300
; #@! TA.AperFunction,Plated,PTH,ComponentDrill
T2C0.600
; #@! TA.AperFunction,Plated,PTH,ComponentDrill
T3C0.800
; #@! TA.AperFunction,Plated,PTH,ComponentDrill
T4C1.000
%
G90
G05
T1
X9.0Y65.0
X9.0Y59.0
X11.0Y102.0
X11.0Y22.0
X11.825Y67.1
X12.0Y78.75
X12.482Y81.662
X13.3Y57.5
X14.3Y76.7
X15.0Y62.1
X16.0Y78.0
X16.0Y38.537
X16.35Y79.95
X17.0Y85.7
X17.0Y84.5
X17.0Y83.2
X17.7Y78.6
X17.75Y81.0
X17.85Y81.95
X18.6Y79.25
X19.6Y79.7
X26.0Y27.817
X29.68Y89.0
X29.68Y84.0
X30.0Y62.0
X32.0Y58.0
X32.0Y49.0
X34.117Y37.477
X34.724Y55.953
X35.095Y45.166
X39.0Y53.0
X39.0Y40.0
X40.5Y46.0
X41.745Y46.8
X42.355Y61.36
X42.879Y64.765
X43.049Y43.655
X44.285Y46.8
X44.8Y45.0
X45.001Y60.626
X46.0Y39.0
X46.828Y60.76
X47.14Y46.735
X47.912Y106.875
X48.77Y57.38
X49.1Y61.1
X50.0Y117.0
X50.0Y29.866
X50.0Y6.0
X50.635Y57.3
X50.817Y92.735
X51.575Y56.709
X52.094Y60.76
X53.152Y91.265
X53.4Y108.25
X53.769Y56.508
X53.8Y112.5
X54.7Y46.5
X54.859Y89.233
X55.5Y63.0
X56.15Y47.5
X56.238Y41.811
X56.35Y83.391
X56.985Y46.2
X57.588Y57.288
X57.62Y94.3
X57.62Y92.85
X58.035Y65.142
X59.0Y113.7
X59.5Y108.0
X60.044Y68.542
X60.1Y109.2
X60.3Y91.25
X60.3Y71.2
X60.45Y56.342
X62.4Y105.7
X62.425Y42.912
X62.5Y90.0
X62.7Y104.0
X63.3Y69.0
X63.325Y116.5
X63.377Y86.42
X63.5Y72.3
X64.691Y36.032
X64.8Y113.3
X64.825Y100.9
X65.9Y101.2
X67.0Y105.5
X67.0Y102.0
X67.2Y108.0
X67.25Y106.3
X67.338Y113.512
X67.868Y101.25
X68.175Y66.2
X68.25Y106.4
X68.5Y107.5
X68.8Y72.0
X69.825Y110.3
X70.0Y62.0
X70.2Y101.5
X70.7Y69.0
X71.0Y102.0
X71.2Y113.8
X71.391Y86.849
X72.169Y90.525
X72.35Y74.5
X72.6Y114.3
X73.0Y101.9
X73.1Y71.0
X73.8Y90.5
X74.0Y64.0
X74.1Y107.1
X74.13Y100.6
X74.2Y72.8
X74.25Y117.75
X74.75Y114.6
X75.1Y103.9
X75.25Y117.75
X75.65Y92.7
X75.75Y114.6
X76.0Y101.0
X76.3Y87.5
X77.4Y114.3
X78.0Y76.5
X78.175Y111.0
X79.2Y78.1
X80.15Y81.5
X80.5Y113.45
X80.5Y111.55
X80.55Y112.5
X81.3Y109.3
X81.5Y75.5
X82.6Y101.0
X82.7Y99.95
X83.275Y83.356
X83.5Y104.6
X84.3Y102.1
X84.3Y99.95
X84.5Y79.062
X85.2Y113.45
X85.2Y111.55
X86.4Y103.8
X87.6Y105.5
X87.6Y98.5
X88.2Y64.0
X89.0Y102.0
X89.0Y22.0
X90.2Y101.0
T2
X30.0Y109.0
X36.0Y109.0
X42.0Y109.0
T4
X25.87Y98.27
X25.87Y95.73
X28.41Y98.27
X28.41Y95.73
X30.95Y98.27
X30.95Y95.73
X33.49Y98.27
X33.49Y95.73
X36.03Y98.27
X36.03Y95.73
X38.57Y98.27
X38.57Y95.73
X41.11Y98.27
X41.11Y95.73
X43.65Y98.27
X43.65Y95.73
X46.19Y98.27
X46.19Y95.73
X48.73Y98.27
X48.73Y95.73
X51.27Y98.27
X51.27Y95.73
X53.81Y98.27
X53.81Y95.73
X56.35Y98.27
X56.35Y95.73
X58.89Y98.27
X58.89Y95.73
X61.43Y98.27
X61.43Y95.73
X63.97Y98.27
X63.97Y95.73
X66.51Y98.27
X66.51Y95.73
X66.73Y80.0
X69.05Y98.27
X69.05Y95.73
X69.27Y80.0
X71.59Y98.27
X71.59Y95.73
X74.13Y98.27
X74.13Y95.73
X82.73Y107.0
X85.0Y92.54
X85.0Y90.0
X85.0Y87.46
X85.27Y107.0
X94.5Y116.04
X94.5Y113.5
X94.5Y110.96
T3
X70.675Y121.074G85X70.675Y121.674
G05
X70.675Y116.794G85X70.675Y117.594
G05
X79.325Y121.074G85X79.325Y121.674
G05
X79.325Y116.794G85X79.325Y117.594
G05
M30
