%TF.GenerationSoftware,KiCad,Pcbnew,10.0.5*%
%TF.CreationDate,2026-10-02T08:00:26+02:00*%
%TF.ProjectId,index,696e6465-782e-46b6-9963-61645f706362,rev?*%
%TF.SameCoordinates,Original*%
%TF.FileFunction,Legend,Bot*%
%TF.FilePolarity,Positive*%
%FSLAX46Y46*%
G04 Gerber Fmt 4.6, Leading zero omitted, Abs format (unit mm)*
G04 Created by KiCad (PCBNEW 10.0.5) date 2026-10-02 08:00:26*
%MOMM*%
%LPD*%
G01*
G04 APERTURE LIST*
G04 Aperture macros list*
%AMRoundRect*
0 Rectangle with rounded corners*
0 $1 Rounding radius*
0 $2 $3 $4 $5 $6 $7 $8 $9 X,Y pos of 4 corners*
0 Add a 4 corners polygon primitive as box body*
4,1,4,$2,$3,$4,$5,$6,$7,$8,$9,$2,$3,0*
0 Add four circle primitives for the rounded corners*
1,1,$1+$1,$2,$3*
1,1,$1+$1,$4,$5*
1,1,$1+$1,$6,$7*
1,1,$1+$1,$8,$9*
0 Add four rect primitives between the rounded corners*
20,1,$1+$1,$2,$3,$4,$5,0*
20,1,$1+$1,$4,$5,$6,$7,0*
20,1,$1+$1,$6,$7,$8,$9,0*
20,1,$1+$1,$8,$9,$2,$3,0*%
%AMFreePoly0*
4,1,9,0.000013,0.649935,0.299987,0.649935,0.299987,-0.650088,-0.000013,-0.650088,-0.000013,-0.649935,-0.299987,-0.649935,-0.299987,0.650088,0.000013,0.650088,0.000013,0.649935,0.000013,0.649935,$1*%
%AMFreePoly1*
4,1,5,0.300012,-0.649986,-0.300012,-0.649986,-0.300012,0.649986,0.300012,0.649986,0.300012,-0.649986,0.300012,-0.649986,$1*%
%AMFreePoly2*
4,1,9,0.000038,0.649973,0.299987,0.649973,0.299987,-0.649999,-0.000038,-0.649999,-0.000038,-0.649973,-0.299987,-0.649973,-0.299987,0.649999,0.000038,0.649999,0.000038,0.649973,0.000038,0.649973,$1*%
G04 Aperture macros list end*
%ADD10C,0.150000*%
%ADD11C,0.100000*%
%ADD12C,0.120000*%
%ADD13C,2.000000*%
%ADD14C,2.750000*%
%ADD15C,2.700000*%
%ADD16C,0.599999*%
%ADD17O,1.199998X1.999996*%
%ADD18O,1.199998X1.799996*%
%ADD19R,0.299999X1.299997*%
%ADD20FreePoly0,0.000000*%
%ADD21FreePoly1,0.000000*%
%ADD22FreePoly2,0.000000*%
%ADD23R,1.500000X1.500000*%
%ADD24C,1.500000*%
%ADD25RoundRect,0.300000X0.000010X0.849997X-0.000010X0.849997X-0.000010X-0.849997X0.000010X-0.849997X0*%
%ADD26R,0.622300X1.104900*%
%ADD27R,0.800000X0.950000*%
%ADD28R,1.025000X1.400000*%
%ADD29C,1.800000*%
%ADD30R,1.250010X0.299999*%
%ADD31R,2.499995X1.999996*%
G04 APERTURE END LIST*
D10*
X30761904Y106997562D02*
X30857142Y107045181D01*
X30857142Y107045181D02*
X30999999Y107045181D01*
X30999999Y107045181D02*
X31142856Y106997562D01*
X31142856Y106997562D02*
X31238094Y106902324D01*
X31238094Y106902324D02*
X31285713Y106807086D01*
X31285713Y106807086D02*
X31333332Y106616610D01*
X31333332Y106616610D02*
X31333332Y106473753D01*
X31333332Y106473753D02*
X31285713Y106283277D01*
X31285713Y106283277D02*
X31238094Y106188039D01*
X31238094Y106188039D02*
X31142856Y106092800D01*
X31142856Y106092800D02*
X30999999Y106045181D01*
X30999999Y106045181D02*
X30904761Y106045181D01*
X30904761Y106045181D02*
X30761904Y106092800D01*
X30761904Y106092800D02*
X30714285Y106140420D01*
X30714285Y106140420D02*
X30714285Y106473753D01*
X30714285Y106473753D02*
X30904761Y106473753D01*
X30285713Y106045181D02*
X30285713Y107045181D01*
X30285713Y107045181D02*
X29714285Y106045181D01*
X29714285Y106045181D02*
X29714285Y107045181D01*
X29238094Y106045181D02*
X29238094Y107045181D01*
X29238094Y107045181D02*
X28999999Y107045181D01*
X28999999Y107045181D02*
X28857142Y106997562D01*
X28857142Y106997562D02*
X28761904Y106902324D01*
X28761904Y106902324D02*
X28714285Y106807086D01*
X28714285Y106807086D02*
X28666666Y106616610D01*
X28666666Y106616610D02*
X28666666Y106473753D01*
X28666666Y106473753D02*
X28714285Y106283277D01*
X28714285Y106283277D02*
X28761904Y106188039D01*
X28761904Y106188039D02*
X28857142Y106092800D01*
X28857142Y106092800D02*
X28999999Y106045181D01*
X28999999Y106045181D02*
X29238094Y106045181D01*
X36190476Y107045181D02*
X36666666Y107045181D01*
X36666666Y107045181D02*
X36714285Y106568991D01*
X36714285Y106568991D02*
X36666666Y106616610D01*
X36666666Y106616610D02*
X36571428Y106664229D01*
X36571428Y106664229D02*
X36333333Y106664229D01*
X36333333Y106664229D02*
X36238095Y106616610D01*
X36238095Y106616610D02*
X36190476Y106568991D01*
X36190476Y106568991D02*
X36142857Y106473753D01*
X36142857Y106473753D02*
X36142857Y106235658D01*
X36142857Y106235658D02*
X36190476Y106140420D01*
X36190476Y106140420D02*
X36238095Y106092800D01*
X36238095Y106092800D02*
X36333333Y106045181D01*
X36333333Y106045181D02*
X36571428Y106045181D01*
X36571428Y106045181D02*
X36666666Y106092800D01*
X36666666Y106092800D02*
X36714285Y106140420D01*
X35857142Y107045181D02*
X35523809Y106045181D01*
X35523809Y106045181D02*
X35190476Y107045181D01*
X43238094Y107045181D02*
X42619047Y107045181D01*
X42619047Y107045181D02*
X42952380Y106664229D01*
X42952380Y106664229D02*
X42809523Y106664229D01*
X42809523Y106664229D02*
X42714285Y106616610D01*
X42714285Y106616610D02*
X42666666Y106568991D01*
X42666666Y106568991D02*
X42619047Y106473753D01*
X42619047Y106473753D02*
X42619047Y106235658D01*
X42619047Y106235658D02*
X42666666Y106140420D01*
X42666666Y106140420D02*
X42714285Y106092800D01*
X42714285Y106092800D02*
X42809523Y106045181D01*
X42809523Y106045181D02*
X43095237Y106045181D01*
X43095237Y106045181D02*
X43190475Y106092800D01*
X43190475Y106092800D02*
X43238094Y106140420D01*
X42333332Y107045181D02*
X41999999Y106045181D01*
X41999999Y106045181D02*
X41666666Y107045181D01*
X41428570Y107045181D02*
X40809523Y107045181D01*
X40809523Y107045181D02*
X41142856Y106664229D01*
X41142856Y106664229D02*
X40999999Y106664229D01*
X40999999Y106664229D02*
X40904761Y106616610D01*
X40904761Y106616610D02*
X40857142Y106568991D01*
X40857142Y106568991D02*
X40809523Y106473753D01*
X40809523Y106473753D02*
X40809523Y106235658D01*
X40809523Y106235658D02*
X40857142Y106140420D01*
X40857142Y106140420D02*
X40904761Y106092800D01*
X40904761Y106092800D02*
X40999999Y106045181D01*
X40999999Y106045181D02*
X41285713Y106045181D01*
X41285713Y106045181D02*
X41380951Y106092800D01*
X41380951Y106092800D02*
X41428570Y106140420D01*
X58714285Y84545181D02*
X58714285Y85545181D01*
X58714285Y85545181D02*
X58333333Y85545181D01*
X58333333Y85545181D02*
X58238095Y85497562D01*
X58238095Y85497562D02*
X58190476Y85449943D01*
X58190476Y85449943D02*
X58142857Y85354705D01*
X58142857Y85354705D02*
X58142857Y85211848D01*
X58142857Y85211848D02*
X58190476Y85116610D01*
X58190476Y85116610D02*
X58238095Y85068991D01*
X58238095Y85068991D02*
X58333333Y85021372D01*
X58333333Y85021372D02*
X58714285Y85021372D01*
X57714285Y84545181D02*
X57714285Y85545181D01*
X56571428Y85545181D02*
X55904762Y85545181D01*
X55904762Y85545181D02*
X56571428Y84545181D01*
X56571428Y84545181D02*
X55904762Y84545181D01*
X55523809Y85068991D02*
X55190476Y85068991D01*
X55047619Y84545181D02*
X55523809Y84545181D01*
X55523809Y84545181D02*
X55523809Y85545181D01*
X55523809Y85545181D02*
X55047619Y85545181D01*
X54047619Y84545181D02*
X54380952Y85021372D01*
X54619047Y84545181D02*
X54619047Y85545181D01*
X54619047Y85545181D02*
X54238095Y85545181D01*
X54238095Y85545181D02*
X54142857Y85497562D01*
X54142857Y85497562D02*
X54095238Y85449943D01*
X54095238Y85449943D02*
X54047619Y85354705D01*
X54047619Y85354705D02*
X54047619Y85211848D01*
X54047619Y85211848D02*
X54095238Y85116610D01*
X54095238Y85116610D02*
X54142857Y85068991D01*
X54142857Y85068991D02*
X54238095Y85021372D01*
X54238095Y85021372D02*
X54619047Y85021372D01*
X53428571Y85545181D02*
X53238095Y85545181D01*
X53238095Y85545181D02*
X53142857Y85497562D01*
X53142857Y85497562D02*
X53047619Y85402324D01*
X53047619Y85402324D02*
X53000000Y85211848D01*
X53000000Y85211848D02*
X53000000Y84878515D01*
X53000000Y84878515D02*
X53047619Y84688039D01*
X53047619Y84688039D02*
X53142857Y84592800D01*
X53142857Y84592800D02*
X53238095Y84545181D01*
X53238095Y84545181D02*
X53428571Y84545181D01*
X53428571Y84545181D02*
X53523809Y84592800D01*
X53523809Y84592800D02*
X53619047Y84688039D01*
X53619047Y84688039D02*
X53666666Y84878515D01*
X53666666Y84878515D02*
X53666666Y85211848D01*
X53666666Y85211848D02*
X53619047Y85402324D01*
X53619047Y85402324D02*
X53523809Y85497562D01*
X53523809Y85497562D02*
X53428571Y85545181D01*
X51857142Y85449943D02*
X51809523Y85497562D01*
X51809523Y85497562D02*
X51714285Y85545181D01*
X51714285Y85545181D02*
X51476190Y85545181D01*
X51476190Y85545181D02*
X51380952Y85497562D01*
X51380952Y85497562D02*
X51333333Y85449943D01*
X51333333Y85449943D02*
X51285714Y85354705D01*
X51285714Y85354705D02*
X51285714Y85259467D01*
X51285714Y85259467D02*
X51333333Y85116610D01*
X51333333Y85116610D02*
X51904761Y84545181D01*
X51904761Y84545181D02*
X51285714Y84545181D01*
X50190475Y85545181D02*
X49952380Y84545181D01*
X49952380Y84545181D02*
X49761904Y85259467D01*
X49761904Y85259467D02*
X49571428Y84545181D01*
X49571428Y84545181D02*
X49333333Y85545181D01*
X47476190Y85592800D02*
X48333332Y84307086D01*
X45809523Y84545181D02*
X46142856Y85021372D01*
X46380951Y84545181D02*
X46380951Y85545181D01*
X46380951Y85545181D02*
X45999999Y85545181D01*
X45999999Y85545181D02*
X45904761Y85497562D01*
X45904761Y85497562D02*
X45857142Y85449943D01*
X45857142Y85449943D02*
X45809523Y85354705D01*
X45809523Y85354705D02*
X45809523Y85211848D01*
X45809523Y85211848D02*
X45857142Y85116610D01*
X45857142Y85116610D02*
X45904761Y85068991D01*
X45904761Y85068991D02*
X45999999Y85021372D01*
X45999999Y85021372D02*
X46380951Y85021372D01*
X45380951Y84545181D02*
X45380951Y85545181D01*
X44571428Y85068991D02*
X44428571Y85021372D01*
X44428571Y85021372D02*
X44380952Y84973753D01*
X44380952Y84973753D02*
X44333333Y84878515D01*
X44333333Y84878515D02*
X44333333Y84735658D01*
X44333333Y84735658D02*
X44380952Y84640420D01*
X44380952Y84640420D02*
X44428571Y84592800D01*
X44428571Y84592800D02*
X44523809Y84545181D01*
X44523809Y84545181D02*
X44904761Y84545181D01*
X44904761Y84545181D02*
X44904761Y85545181D01*
X44904761Y85545181D02*
X44571428Y85545181D01*
X44571428Y85545181D02*
X44476190Y85497562D01*
X44476190Y85497562D02*
X44428571Y85449943D01*
X44428571Y85449943D02*
X44380952Y85354705D01*
X44380952Y85354705D02*
X44380952Y85259467D01*
X44380952Y85259467D02*
X44428571Y85164229D01*
X44428571Y85164229D02*
X44476190Y85116610D01*
X44476190Y85116610D02*
X44571428Y85068991D01*
X44571428Y85068991D02*
X44904761Y85068991D01*
X43571428Y85068991D02*
X43428571Y85021372D01*
X43428571Y85021372D02*
X43380952Y84973753D01*
X43380952Y84973753D02*
X43333333Y84878515D01*
X43333333Y84878515D02*
X43333333Y84735658D01*
X43333333Y84735658D02*
X43380952Y84640420D01*
X43380952Y84640420D02*
X43428571Y84592800D01*
X43428571Y84592800D02*
X43523809Y84545181D01*
X43523809Y84545181D02*
X43904761Y84545181D01*
X43904761Y84545181D02*
X43904761Y85545181D01*
X43904761Y85545181D02*
X43571428Y85545181D01*
X43571428Y85545181D02*
X43476190Y85497562D01*
X43476190Y85497562D02*
X43428571Y85449943D01*
X43428571Y85449943D02*
X43380952Y85354705D01*
X43380952Y85354705D02*
X43380952Y85259467D01*
X43380952Y85259467D02*
X43428571Y85164229D01*
X43428571Y85164229D02*
X43476190Y85116610D01*
X43476190Y85116610D02*
X43571428Y85068991D01*
X43571428Y85068991D02*
X43904761Y85068991D01*
X42714285Y85545181D02*
X42523809Y85545181D01*
X42523809Y85545181D02*
X42428571Y85497562D01*
X42428571Y85497562D02*
X42333333Y85402324D01*
X42333333Y85402324D02*
X42285714Y85211848D01*
X42285714Y85211848D02*
X42285714Y84878515D01*
X42285714Y84878515D02*
X42333333Y84688039D01*
X42333333Y84688039D02*
X42428571Y84592800D01*
X42428571Y84592800D02*
X42523809Y84545181D01*
X42523809Y84545181D02*
X42714285Y84545181D01*
X42714285Y84545181D02*
X42809523Y84592800D01*
X42809523Y84592800D02*
X42904761Y84688039D01*
X42904761Y84688039D02*
X42952380Y84878515D01*
X42952380Y84878515D02*
X42952380Y85211848D01*
X42952380Y85211848D02*
X42904761Y85402324D01*
X42904761Y85402324D02*
X42809523Y85497562D01*
X42809523Y85497562D02*
X42714285Y85545181D01*
X41857142Y84545181D02*
X41857142Y85545181D01*
X41857142Y85545181D02*
X41285714Y84545181D01*
X41285714Y84545181D02*
X41285714Y85545181D01*
X67110951Y81926134D02*
X66349047Y81926134D01*
X71119047Y84092800D02*
X70976190Y84045181D01*
X70976190Y84045181D02*
X70738095Y84045181D01*
X70738095Y84045181D02*
X70642857Y84092800D01*
X70642857Y84092800D02*
X70595238Y84140420D01*
X70595238Y84140420D02*
X70547619Y84235658D01*
X70547619Y84235658D02*
X70547619Y84330896D01*
X70547619Y84330896D02*
X70595238Y84426134D01*
X70595238Y84426134D02*
X70642857Y84473753D01*
X70642857Y84473753D02*
X70738095Y84521372D01*
X70738095Y84521372D02*
X70928571Y84568991D01*
X70928571Y84568991D02*
X71023809Y84616610D01*
X71023809Y84616610D02*
X71071428Y84664229D01*
X71071428Y84664229D02*
X71119047Y84759467D01*
X71119047Y84759467D02*
X71119047Y84854705D01*
X71119047Y84854705D02*
X71071428Y84949943D01*
X71071428Y84949943D02*
X71023809Y84997562D01*
X71023809Y84997562D02*
X70928571Y85045181D01*
X70928571Y85045181D02*
X70690476Y85045181D01*
X70690476Y85045181D02*
X70547619Y84997562D01*
X70119047Y84045181D02*
X70119047Y85045181D01*
X70119047Y85045181D02*
X69738095Y85045181D01*
X69738095Y85045181D02*
X69642857Y84997562D01*
X69642857Y84997562D02*
X69595238Y84949943D01*
X69595238Y84949943D02*
X69547619Y84854705D01*
X69547619Y84854705D02*
X69547619Y84711848D01*
X69547619Y84711848D02*
X69595238Y84616610D01*
X69595238Y84616610D02*
X69642857Y84568991D01*
X69642857Y84568991D02*
X69738095Y84521372D01*
X69738095Y84521372D02*
X70119047Y84521372D01*
X69119047Y84568991D02*
X68785714Y84568991D01*
X68642857Y84045181D02*
X69119047Y84045181D01*
X69119047Y84045181D02*
X69119047Y85045181D01*
X69119047Y85045181D02*
X68642857Y85045181D01*
X68261904Y84330896D02*
X67785714Y84330896D01*
X68357142Y84045181D02*
X68023809Y85045181D01*
X68023809Y85045181D02*
X67690476Y84045181D01*
X67357142Y84045181D02*
X67357142Y85045181D01*
X66785714Y84045181D02*
X67214285Y84616610D01*
X66785714Y85045181D02*
X67357142Y84473753D01*
X66357142Y84568991D02*
X66023809Y84568991D01*
X65880952Y84045181D02*
X66357142Y84045181D01*
X66357142Y84045181D02*
X66357142Y85045181D01*
X66357142Y85045181D02*
X65880952Y85045181D01*
X64880952Y84045181D02*
X65214285Y84521372D01*
X65452380Y84045181D02*
X65452380Y85045181D01*
X65452380Y85045181D02*
X65071428Y85045181D01*
X65071428Y85045181D02*
X64976190Y84997562D01*
X64976190Y84997562D02*
X64928571Y84949943D01*
X64928571Y84949943D02*
X64880952Y84854705D01*
X64880952Y84854705D02*
X64880952Y84711848D01*
X64880952Y84711848D02*
X64928571Y84616610D01*
X64928571Y84616610D02*
X64976190Y84568991D01*
X64976190Y84568991D02*
X65071428Y84521372D01*
X65071428Y84521372D02*
X65452380Y84521372D01*
X69650951Y81926134D02*
X68889047Y81926134D01*
X69269999Y81545181D02*
X69269999Y82307086D01*
X78833333Y101545181D02*
X78833333Y100830896D01*
X78833333Y100830896D02*
X78880952Y100688039D01*
X78880952Y100688039D02*
X78976190Y100592800D01*
X78976190Y100592800D02*
X79119047Y100545181D01*
X79119047Y100545181D02*
X79214285Y100545181D01*
X78214285Y101116610D02*
X78309523Y101164229D01*
X78309523Y101164229D02*
X78357142Y101211848D01*
X78357142Y101211848D02*
X78404761Y101307086D01*
X78404761Y101307086D02*
X78404761Y101354705D01*
X78404761Y101354705D02*
X78357142Y101449943D01*
X78357142Y101449943D02*
X78309523Y101497562D01*
X78309523Y101497562D02*
X78214285Y101545181D01*
X78214285Y101545181D02*
X78023809Y101545181D01*
X78023809Y101545181D02*
X77928571Y101497562D01*
X77928571Y101497562D02*
X77880952Y101449943D01*
X77880952Y101449943D02*
X77833333Y101354705D01*
X77833333Y101354705D02*
X77833333Y101307086D01*
X77833333Y101307086D02*
X77880952Y101211848D01*
X77880952Y101211848D02*
X77928571Y101164229D01*
X77928571Y101164229D02*
X78023809Y101116610D01*
X78023809Y101116610D02*
X78214285Y101116610D01*
X78214285Y101116610D02*
X78309523Y101068991D01*
X78309523Y101068991D02*
X78357142Y101021372D01*
X78357142Y101021372D02*
X78404761Y100926134D01*
X78404761Y100926134D02*
X78404761Y100735658D01*
X78404761Y100735658D02*
X78357142Y100640420D01*
X78357142Y100640420D02*
X78309523Y100592800D01*
X78309523Y100592800D02*
X78214285Y100545181D01*
X78214285Y100545181D02*
X78023809Y100545181D01*
X78023809Y100545181D02*
X77928571Y100592800D01*
X77928571Y100592800D02*
X77880952Y100640420D01*
X77880952Y100640420D02*
X77833333Y100735658D01*
X77833333Y100735658D02*
X77833333Y100926134D01*
X77833333Y100926134D02*
X77880952Y101021372D01*
X77880952Y101021372D02*
X77928571Y101068991D01*
X77928571Y101068991D02*
X78023809Y101116610D01*
X76642856Y100545181D02*
X76642856Y101545181D01*
X76642856Y101545181D02*
X76261904Y101545181D01*
X76261904Y101545181D02*
X76166666Y101497562D01*
X76166666Y101497562D02*
X76119047Y101449943D01*
X76119047Y101449943D02*
X76071428Y101354705D01*
X76071428Y101354705D02*
X76071428Y101211848D01*
X76071428Y101211848D02*
X76119047Y101116610D01*
X76119047Y101116610D02*
X76166666Y101068991D01*
X76166666Y101068991D02*
X76261904Y101021372D01*
X76261904Y101021372D02*
X76642856Y101021372D01*
X75642856Y100545181D02*
X75642856Y101545181D01*
X75166666Y100545181D02*
X75166666Y101545181D01*
X75166666Y101545181D02*
X74595238Y100545181D01*
X74595238Y100545181D02*
X74595238Y101545181D01*
X72833333Y100545181D02*
X73404761Y100545181D01*
X73119047Y100545181D02*
X73119047Y101545181D01*
X73119047Y101545181D02*
X73214285Y101402324D01*
X73214285Y101402324D02*
X73309523Y101307086D01*
X73309523Y101307086D02*
X73404761Y101259467D01*
X72404761Y100640420D02*
X72357142Y100592800D01*
X72357142Y100592800D02*
X72404761Y100545181D01*
X72404761Y100545181D02*
X72452380Y100592800D01*
X72452380Y100592800D02*
X72404761Y100640420D01*
X72404761Y100640420D02*
X72404761Y100545181D01*
X72404761Y101164229D02*
X72357142Y101116610D01*
X72357142Y101116610D02*
X72404761Y101068991D01*
X72404761Y101068991D02*
X72452380Y101116610D01*
X72452380Y101116610D02*
X72404761Y101164229D01*
X72404761Y101164229D02*
X72404761Y101068991D01*
X71261904Y101545181D02*
X70642857Y101545181D01*
X70642857Y101545181D02*
X70976190Y101164229D01*
X70976190Y101164229D02*
X70833333Y101164229D01*
X70833333Y101164229D02*
X70738095Y101116610D01*
X70738095Y101116610D02*
X70690476Y101068991D01*
X70690476Y101068991D02*
X70642857Y100973753D01*
X70642857Y100973753D02*
X70642857Y100735658D01*
X70642857Y100735658D02*
X70690476Y100640420D01*
X70690476Y100640420D02*
X70738095Y100592800D01*
X70738095Y100592800D02*
X70833333Y100545181D01*
X70833333Y100545181D02*
X71119047Y100545181D01*
X71119047Y100545181D02*
X71214285Y100592800D01*
X71214285Y100592800D02*
X71261904Y100640420D01*
X70357142Y101545181D02*
X70023809Y100545181D01*
X70023809Y100545181D02*
X69690476Y101545181D01*
X69452380Y101545181D02*
X68833333Y101545181D01*
X68833333Y101545181D02*
X69166666Y101164229D01*
X69166666Y101164229D02*
X69023809Y101164229D01*
X69023809Y101164229D02*
X68928571Y101116610D01*
X68928571Y101116610D02*
X68880952Y101068991D01*
X68880952Y101068991D02*
X68833333Y100973753D01*
X68833333Y100973753D02*
X68833333Y100735658D01*
X68833333Y100735658D02*
X68880952Y100640420D01*
X68880952Y100640420D02*
X68928571Y100592800D01*
X68928571Y100592800D02*
X69023809Y100545181D01*
X69023809Y100545181D02*
X69309523Y100545181D01*
X69309523Y100545181D02*
X69404761Y100592800D01*
X69404761Y100592800D02*
X69452380Y100640420D01*
X89428571Y96568991D02*
X89285714Y96521372D01*
X89285714Y96521372D02*
X89238095Y96473753D01*
X89238095Y96473753D02*
X89190476Y96378515D01*
X89190476Y96378515D02*
X89190476Y96235658D01*
X89190476Y96235658D02*
X89238095Y96140420D01*
X89238095Y96140420D02*
X89285714Y96092800D01*
X89285714Y96092800D02*
X89380952Y96045181D01*
X89380952Y96045181D02*
X89761904Y96045181D01*
X89761904Y96045181D02*
X89761904Y97045181D01*
X89761904Y97045181D02*
X89428571Y97045181D01*
X89428571Y97045181D02*
X89333333Y96997562D01*
X89333333Y96997562D02*
X89285714Y96949943D01*
X89285714Y96949943D02*
X89238095Y96854705D01*
X89238095Y96854705D02*
X89238095Y96759467D01*
X89238095Y96759467D02*
X89285714Y96664229D01*
X89285714Y96664229D02*
X89333333Y96616610D01*
X89333333Y96616610D02*
X89428571Y96568991D01*
X89428571Y96568991D02*
X89761904Y96568991D01*
X88809523Y96330896D02*
X88333333Y96330896D01*
X88904761Y96045181D02*
X88571428Y97045181D01*
X88571428Y97045181D02*
X88238095Y96045181D01*
X88047618Y97045181D02*
X87476190Y97045181D01*
X87761904Y96045181D02*
X87761904Y97045181D01*
X85666666Y97092800D02*
X86523808Y95807086D01*
X84571427Y96045181D02*
X84571427Y97045181D01*
X84571427Y97045181D02*
X83999999Y96045181D01*
X83999999Y96045181D02*
X83999999Y97045181D01*
X83666665Y97045181D02*
X83095237Y97045181D01*
X83380951Y96045181D02*
X83380951Y97045181D01*
X82190475Y96140420D02*
X82238094Y96092800D01*
X82238094Y96092800D02*
X82380951Y96045181D01*
X82380951Y96045181D02*
X82476189Y96045181D01*
X82476189Y96045181D02*
X82619046Y96092800D01*
X82619046Y96092800D02*
X82714284Y96188039D01*
X82714284Y96188039D02*
X82761903Y96283277D01*
X82761903Y96283277D02*
X82809522Y96473753D01*
X82809522Y96473753D02*
X82809522Y96616610D01*
X82809522Y96616610D02*
X82761903Y96807086D01*
X82761903Y96807086D02*
X82714284Y96902324D01*
X82714284Y96902324D02*
X82619046Y96997562D01*
X82619046Y96997562D02*
X82476189Y97045181D01*
X82476189Y97045181D02*
X82380951Y97045181D01*
X82380951Y97045181D02*
X82238094Y96997562D01*
X82238094Y96997562D02*
X82190475Y96949943D01*
X89166666Y92085181D02*
X89166666Y93085181D01*
X89166666Y93085181D02*
X88595238Y92085181D01*
X88595238Y92085181D02*
X88595238Y93085181D01*
X88261904Y93085181D02*
X87690476Y93085181D01*
X87976190Y92085181D02*
X87976190Y93085181D01*
X86785714Y92180420D02*
X86833333Y92132800D01*
X86833333Y92132800D02*
X86976190Y92085181D01*
X86976190Y92085181D02*
X87071428Y92085181D01*
X87071428Y92085181D02*
X87214285Y92132800D01*
X87214285Y92132800D02*
X87309523Y92228039D01*
X87309523Y92228039D02*
X87357142Y92323277D01*
X87357142Y92323277D02*
X87404761Y92513753D01*
X87404761Y92513753D02*
X87404761Y92656610D01*
X87404761Y92656610D02*
X87357142Y92847086D01*
X87357142Y92847086D02*
X87309523Y92942324D01*
X87309523Y92942324D02*
X87214285Y93037562D01*
X87214285Y93037562D02*
X87071428Y93085181D01*
X87071428Y93085181D02*
X86976190Y93085181D01*
X86976190Y93085181D02*
X86833333Y93037562D01*
X86833333Y93037562D02*
X86785714Y92989943D01*
X88380951Y89926134D02*
X87619047Y89926134D01*
X88380951Y87386134D02*
X87619047Y87386134D01*
X87999999Y87005181D02*
X87999999Y87767086D01*
X90952380Y107545181D02*
X90761904Y107545181D01*
X90761904Y107545181D02*
X90666666Y107497562D01*
X90666666Y107497562D02*
X90571428Y107402324D01*
X90571428Y107402324D02*
X90523809Y107211848D01*
X90523809Y107211848D02*
X90523809Y106878515D01*
X90523809Y106878515D02*
X90571428Y106688039D01*
X90571428Y106688039D02*
X90666666Y106592800D01*
X90666666Y106592800D02*
X90761904Y106545181D01*
X90761904Y106545181D02*
X90952380Y106545181D01*
X90952380Y106545181D02*
X91047618Y106592800D01*
X91047618Y106592800D02*
X91142856Y106688039D01*
X91142856Y106688039D02*
X91190475Y106878515D01*
X91190475Y106878515D02*
X91190475Y107211848D01*
X91190475Y107211848D02*
X91142856Y107402324D01*
X91142856Y107402324D02*
X91047618Y107497562D01*
X91047618Y107497562D02*
X90952380Y107545181D01*
X89761904Y107068991D02*
X90095237Y107068991D01*
X90095237Y106545181D02*
X90095237Y107545181D01*
X90095237Y107545181D02*
X89619047Y107545181D01*
X88904761Y107068991D02*
X89238094Y107068991D01*
X89238094Y106545181D02*
X89238094Y107545181D01*
X89238094Y107545181D02*
X88761904Y107545181D01*
X75514285Y97815181D02*
X76085713Y97815181D01*
X75799999Y97815181D02*
X75799999Y98815181D01*
X75799999Y98815181D02*
X75895237Y98672324D01*
X75895237Y98672324D02*
X75990475Y98577086D01*
X75990475Y98577086D02*
X76085713Y98529467D01*
%TO.C,J_USB*%
D11*
X70531022Y123500000D02*
X70531022Y122512839D01*
X70531022Y120275759D02*
X70531022Y118412847D01*
X79471010Y123500000D02*
X70531022Y123500000D01*
X79471010Y123500000D02*
X79471010Y122512483D01*
X79471010Y120276115D02*
X79471010Y118412491D01*
%TO.C,U_KEYS*%
X40949980Y57420491D02*
X40949980Y50492387D01*
X40949980Y50492387D02*
X59050020Y50492387D01*
X57746723Y51491862D02*
X57833246Y51703913D01*
X57833246Y51703913D02*
X58044180Y51793121D01*
X57835038Y51280552D02*
X57746723Y51491862D01*
X58046720Y51193133D02*
X57835038Y51280552D01*
X58049260Y51793121D02*
X58260194Y51703913D01*
X58258402Y51280552D02*
X58046720Y51193133D01*
X58260194Y51703913D02*
X58346717Y51491862D01*
X58346717Y51491862D02*
X58258402Y51280552D01*
X58949539Y48492879D02*
X59098280Y48643521D01*
X59050020Y57420491D02*
X40949980Y57420491D01*
X59050020Y56492375D02*
X59050020Y57420491D01*
X59050020Y50492387D02*
X59050020Y56492375D01*
X59099550Y48343502D02*
X58949539Y48492879D01*
X59100820Y48643521D02*
X59249561Y48492879D01*
X59249561Y48492879D02*
X59099550Y48343502D01*
%TO.C,U_LCD_PWR*%
X13588065Y62500380D02*
X13588065Y61499620D01*
X13588065Y61499620D02*
X16387145Y61499620D01*
X16387145Y62500380D02*
X13588065Y62500380D01*
X16387145Y61499620D02*
X16387145Y62500380D01*
X16653821Y60603629D02*
X16777009Y60478540D01*
X16778279Y60727454D02*
X16653821Y60603629D01*
X16779549Y60478540D02*
X16902738Y60603629D01*
X16902738Y60603629D02*
X16778279Y60727454D01*
%TO.C,C_LCD_OUT*%
X10175000Y65875000D02*
X12425000Y65875000D01*
X12425000Y65875000D02*
X12425000Y64125000D01*
X12425000Y64125000D02*
X10175000Y64125000D01*
%TO.C,C_KEYS_BULK*%
X55375000Y46100000D02*
X57912500Y46100000D01*
X55375000Y43900000D02*
X55375000Y46100000D01*
X57912500Y43900000D02*
X55375000Y43900000D01*
%TO.C,C_KEYS*%
X46445000Y47375000D02*
X48695000Y47375000D01*
X48695000Y47375000D02*
X48695000Y45625000D01*
X48695000Y45625000D02*
X46445000Y45625000D01*
%TO.C,C_LCD_IN*%
X10175000Y59875000D02*
X12425000Y59875000D01*
X12425000Y59875000D02*
X12425000Y58125000D01*
X12425000Y58125000D02*
X10175000Y58125000D01*
%TO.C,J_LCD*%
X9092515Y88669989D02*
X9092515Y75230011D01*
X9092515Y75230011D02*
X10543820Y75230011D01*
X10578847Y88669989D02*
X9092515Y88669989D01*
X13506120Y75230011D02*
X14332484Y75230011D01*
X14332484Y88669989D02*
X13541147Y88669989D01*
X14332484Y86529988D02*
X14332484Y88669989D01*
X14332484Y75230011D02*
X14332484Y77368869D01*
X15090496Y77172959D02*
G75*
G02*
X14836496Y77172959I-127000J0D01*
G01*
X14836496Y77172959D02*
G75*
G02*
X15090496Y77172959I127000J0D01*
G01*
X15090496Y77172959D02*
G75*
G02*
X14836496Y77172959I-127000J0D01*
G01*
X14836496Y77172959D02*
G75*
G02*
X15090496Y77172959I127000J0D01*
G01*
%TO.C,R_RESET*%
D12*
X56237258Y63522500D02*
X55762742Y63522500D01*
X56237258Y62477500D02*
X55762742Y62477500D01*
%TD*%
%LPC*%
D13*
%TO.C,*%
X12000000Y111000000D03*
%TD*%
D14*
%TO.C,*%
X79000000Y72730000D03*
%TD*%
D13*
%TO.C,*%
X88000000Y111000000D03*
%TD*%
D15*
%TO.C,*%
X96000000Y120000000D03*
%TD*%
D14*
%TO.C,*%
X21000000Y72730000D03*
%TD*%
%TO.C,*%
X79000000Y95730000D03*
%TD*%
D13*
%TO.C,*%
X12000000Y13000000D03*
%TD*%
D15*
%TO.C,*%
X4000000Y120000000D03*
%TD*%
D14*
%TO.C,*%
X21000000Y95730000D03*
%TD*%
D15*
%TO.C,*%
X96000000Y4000000D03*
%TD*%
%TO.C,*%
X4000000Y4000000D03*
%TD*%
D16*
%TO.C,J_USB*%
X77899918Y117694433D03*
X72100082Y117694433D03*
D17*
X79325112Y117194307D03*
D18*
X79325112Y121374131D03*
X70674888Y121374131D03*
D17*
X70674888Y117194307D03*
D19*
X73249940Y116425957D03*
X73750066Y116425957D03*
X74249938Y116425957D03*
X74750064Y116425957D03*
X75249936Y116425957D03*
X75750062Y116425957D03*
X76249680Y116425957D03*
X76750060Y116425957D03*
D20*
X71800045Y116425957D03*
D21*
X78200006Y116425856D03*
X77400160Y116425856D03*
D22*
X72600043Y116426021D03*
%TD*%
D23*
%TO.C,J_BAT*%
X85000000Y87460000D03*
D24*
X85000000Y90000000D03*
X85000000Y92540000D03*
%TD*%
D25*
%TO.C,U_KEYS*%
X58255000Y48942479D03*
X56985000Y48942479D03*
X55715000Y48942479D03*
X54445000Y48942479D03*
X53175000Y48942479D03*
X51905000Y48942479D03*
X50635000Y48942479D03*
X49365000Y48942479D03*
X48095000Y48942479D03*
X46825000Y48942479D03*
X45555000Y48942479D03*
X44285000Y48942479D03*
X43015000Y48942479D03*
X41745000Y48942479D03*
X41745000Y59057521D03*
X43015000Y59057521D03*
X44285000Y59057521D03*
X45555000Y59057521D03*
X46825000Y59057521D03*
X48095000Y59057521D03*
X49365000Y59057521D03*
X50635000Y59057521D03*
X51905000Y59057521D03*
X53175000Y59057521D03*
X54445000Y59057521D03*
X55715000Y59057521D03*
X56985000Y59057521D03*
X58255000Y59057521D03*
%TD*%
D26*
%TO.C,U_LCD_PWR*%
X15949706Y60700028D03*
X15000508Y60700028D03*
X14050294Y60700028D03*
X14050294Y63299972D03*
X15949706Y63299972D03*
%TD*%
D27*
%TO.C,C_LCD_OUT*%
X11825000Y65000000D03*
X10175000Y65000000D03*
%TD*%
D28*
%TO.C,C_KEYS_BULK*%
X56087500Y45000000D03*
X57912500Y45000000D03*
%TD*%
D24*
%TO.C,TP_3V3*%
X42000000Y109000000D03*
%TD*%
D27*
%TO.C,C_KEYS*%
X48095000Y46500000D03*
X46445000Y46500000D03*
%TD*%
D23*
%TO.C,J_SPEAKER*%
X69270000Y80000000D03*
D24*
X66730000Y80000000D03*
%TD*%
D27*
%TO.C,C_LCD_IN*%
X11825000Y59000000D03*
X10175000Y59000000D03*
%TD*%
D29*
%TO.C,J_PI*%
X74130000Y98270000D03*
X74130000Y95730000D03*
X71590000Y98270000D03*
X71590000Y95730000D03*
X69050000Y98270000D03*
X69050000Y95730000D03*
X66510000Y98270000D03*
X66510000Y95730000D03*
X63970000Y98270000D03*
X63970000Y95730000D03*
X61430000Y98270000D03*
X61430000Y95730000D03*
X58890000Y98270000D03*
X58890000Y95730000D03*
X56350000Y98270000D03*
X56350000Y95730000D03*
X53810000Y98270000D03*
X53810000Y95730000D03*
X51270000Y98270000D03*
X51270000Y95730000D03*
X48730000Y98270000D03*
X48730000Y95730000D03*
X46190000Y98270000D03*
X46190000Y95730000D03*
X43650000Y98270000D03*
X43650000Y95730000D03*
X41110000Y98270000D03*
X41110000Y95730000D03*
X38570000Y98270000D03*
X38570000Y95730000D03*
X36030000Y98270000D03*
X36030000Y95730000D03*
X33490000Y98270000D03*
X33490000Y95730000D03*
X30950000Y98270000D03*
X30950000Y95730000D03*
X28410000Y98270000D03*
X28410000Y95730000D03*
X25870000Y98270000D03*
X25870000Y95730000D03*
%TD*%
D30*
%TO.C,J_LCD*%
X14600022Y77750047D03*
X14600022Y78249919D03*
X14600022Y78750045D03*
X14600022Y79249917D03*
X14600022Y79750043D03*
X14600022Y80249915D03*
X14600022Y80750041D03*
X14600022Y81249913D03*
X14600022Y81750039D03*
X14600022Y82249911D03*
X14600022Y82750037D03*
X14600022Y83249909D03*
X14599971Y83749806D03*
X14599971Y84249932D03*
X14599971Y84749804D03*
X14599971Y85249930D03*
X14599971Y85749802D03*
X14599971Y86249928D03*
D31*
X12024970Y76060007D03*
X12059997Y87939993D03*
%TD*%
D27*
%TO.C,R_RESET*%
X56825000Y63000000D03*
X55175000Y63000000D03*
%TD*%
D24*
%TO.C,TP_5V*%
X36000000Y109000000D03*
%TD*%
%TO.C,TP_GND*%
X30000000Y109000000D03*
%TD*%
D23*
%TO.C,J_OFF*%
X85270000Y107000000D03*
D24*
X82730000Y107000000D03*
%TD*%
%LPD*%
M02*
