%TF.GenerationSoftware,KiCad,Pcbnew,10.0.5*%
%TF.CreationDate,2026-10-02T07:40:42+02:00*%
%TF.ProjectId,index,696e6465-782e-46b6-9963-61645f706362,rev?*%
%TF.SameCoordinates,Original*%
%TF.FileFunction,Soldermask,Top*%
%TF.FilePolarity,Negative*%
%FSLAX46Y46*%
G04 Gerber Fmt 4.6, Leading zero omitted, Abs format (unit mm)*
G04 Created by KiCad (PCBNEW 10.0.5) date 2026-10-02 07:40:42*
%MOMM*%
%LPD*%
G01*
G04 APERTURE LIST*
G04 Aperture macros list*
%AMRoundRect*
0 Rectangle with rounded corners*
0 $1 Rounding radius*
0 $2 $3 $4 $5 $6 $7 $8 $9 X,Y pos of 4 corners*
0 Add a 4 corners polygon primitive as box body*
4,1,4,$2,$3,$4,$5,$6,$7,$8,$9,$2,$3,0*
0 Add four circle primitives for the rounded corners*
1,1,$1+$1,$2,$3*
1,1,$1+$1,$4,$5*
1,1,$1+$1,$6,$7*
1,1,$1+$1,$8,$9*
0 Add four rect primitives between the rounded corners*
20,1,$1+$1,$2,$3,$4,$5,0*
20,1,$1+$1,$4,$5,$6,$7,0*
20,1,$1+$1,$6,$7,$8,$9,0*
20,1,$1+$1,$8,$9,$2,$3,0*%
%AMFreePoly0*
4,1,6,0.934994,0.764992,0.934994,-0.935004,-0.765002,-0.935004,-0.765002,0.339999,-0.339984,0.765018,0.934994,0.764992,0.934994,0.764992,$1*%
G04 Aperture macros list end*
%ADD10R,0.800000X0.950000*%
%ADD11R,0.999998X0.750011*%
%ADD12C,2.750000*%
%ADD13R,0.999998X2.199996*%
%ADD14R,0.250012X0.599999*%
%ADD15R,0.599999X0.250012*%
%ADD16R,1.499997X1.499997*%
%ADD17R,0.280010X0.424993*%
%ADD18R,1.199998X0.799998*%
%ADD19R,1.025000X1.400000*%
%ADD20C,2.000000*%
%ADD21R,0.599999X0.299999*%
%ADD22RoundRect,0.140005X-0.285000X-0.000010X0.285000X-0.000010X0.285000X0.000010X-0.285000X0.000010X0*%
%ADD23RoundRect,0.140005X-0.000010X-0.285000X0.000010X-0.285000X0.000010X0.285000X-0.000010X0.285000X0*%
%ADD24FreePoly0,0.000000*%
%ADD25R,1.125000X1.750000*%
%ADD26C,2.700000*%
%ADD27C,0.599999*%
%ADD28O,1.199998X1.999996*%
%ADD29O,1.199998X1.799996*%
%ADD30R,1.500000X1.500000*%
%ADD31C,1.500000*%
%ADD32C,1.800000*%
G04 APERTURE END LIST*
D10*
%TO.C,R_AUDIO_EN*%
X68175000Y69000000D03*
X69825000Y69000000D03*
%TD*%
D11*
%TO.C,SW_X*%
X71000006Y44849882D03*
X76999994Y44849882D03*
X71000006Y41150118D03*
X76999994Y41150118D03*
%TD*%
D12*
%TO.C,*%
X79000000Y72730000D03*
%TD*%
D11*
%TO.C,SW_MENU*%
X47000006Y21849882D03*
X52999994Y21849882D03*
X47000006Y18150118D03*
X52999994Y18150118D03*
%TD*%
%TO.C,SW_SELECT*%
X35000006Y11849882D03*
X40999994Y11849882D03*
X35000006Y8150118D03*
X40999994Y8150118D03*
%TD*%
%TO.C,SW_START*%
X59000006Y11849882D03*
X64999994Y11849882D03*
X59000006Y8150118D03*
X64999994Y8150118D03*
%TD*%
%TO.C,SW_DOWN*%
X23000006Y24849882D03*
X28999994Y24849882D03*
X23000006Y21150118D03*
X28999994Y21150118D03*
%TD*%
D10*
%TO.C,C_USB*%
X71175000Y107100000D03*
X72825000Y107100000D03*
%TD*%
D11*
%TO.C,SW_Y*%
X61000006Y34849882D03*
X66999994Y34849882D03*
X61000006Y31150118D03*
X66999994Y31150118D03*
%TD*%
D13*
%TO.C,L_BOOST*%
X55049532Y111000000D03*
X56950468Y111000000D03*
%TD*%
D10*
%TO.C,C_FEEDFORWARD*%
X67825000Y112000000D03*
X66175000Y112000000D03*
%TD*%
D14*
%TO.C,U_AUDIO*%
X66251589Y72500003D03*
X66751461Y72500003D03*
X67251587Y72500003D03*
X67751459Y72500003D03*
D15*
X68499997Y73252097D03*
X68499997Y73751969D03*
X68499997Y74252095D03*
X68499997Y74751967D03*
D14*
X67749935Y75499997D03*
X67250063Y75499997D03*
X66749937Y75499997D03*
X66251589Y75499997D03*
D15*
X65500003Y74751967D03*
X65500003Y74252095D03*
X65500003Y73751969D03*
X65500003Y73252097D03*
D16*
X67000127Y73999873D03*
%TD*%
D10*
%TO.C,R_GOOD_PULL*%
X74175000Y89000000D03*
X75825000Y89000000D03*
%TD*%
D17*
%TO.C,U_GAUGE*%
X81249938Y79062486D03*
X81750064Y79062486D03*
X82249936Y79062486D03*
X82750062Y79062486D03*
X82750062Y80937514D03*
X82249936Y80937514D03*
X81750064Y80937514D03*
X81249938Y80937514D03*
D18*
X82000000Y80000000D03*
%TD*%
D19*
%TO.C,C_BAT*%
X65412500Y104000000D03*
X63587500Y104000000D03*
%TD*%
D20*
%TO.C,*%
X88000000Y111000000D03*
%TD*%
D21*
%TO.C,U_BOOST*%
X60749986Y110500001D03*
X60749986Y110999873D03*
X60749986Y111499999D03*
X59250014Y111499999D03*
X59250014Y110999873D03*
X59250014Y110500001D03*
%TD*%
D11*
%TO.C,SW_B*%
X71000006Y24849882D03*
X76999994Y24849882D03*
X71000006Y21150118D03*
X76999994Y21150118D03*
%TD*%
D10*
%TO.C,R_CC2*%
X76175000Y113000000D03*
X77825000Y113000000D03*
%TD*%
%TO.C,R_ISET*%
X64825000Y102000000D03*
X63175000Y102000000D03*
%TD*%
D11*
%TO.C,SW_A*%
X81000006Y34849882D03*
X86999994Y34849882D03*
X81000006Y31150118D03*
X86999994Y31150118D03*
%TD*%
D10*
%TO.C,R_ALERT_PULL*%
X82175000Y77000000D03*
X83825000Y77000000D03*
%TD*%
%TO.C,R_FB_HI*%
X66325000Y109000000D03*
X64675000Y109000000D03*
%TD*%
%TO.C,R_EN*%
X61675000Y115000000D03*
X63325000Y115000000D03*
%TD*%
D20*
%TO.C,*%
X12000000Y111000000D03*
%TD*%
D22*
%TO.C,U_CHARGE*%
X67500003Y104750189D03*
X67500003Y104250063D03*
X67500003Y103750191D03*
X67500003Y103250065D03*
D23*
X68250065Y102500003D03*
X68750191Y102500003D03*
X69250063Y102500003D03*
X69750189Y102500003D03*
D22*
X70499997Y103250065D03*
X70499997Y103750191D03*
X70499997Y104250063D03*
X70499997Y104750189D03*
D23*
X69750189Y105499997D03*
X69250063Y105499997D03*
X68750191Y105499997D03*
X68250065Y105499997D03*
D24*
X68915118Y104085120D03*
%TD*%
D25*
%TO.C,C_BOOST_OUT1*%
X57962500Y108250000D03*
X55037500Y108250000D03*
%TD*%
D10*
%TO.C,C_AUDIO_HF*%
X69825000Y74500000D03*
X71475000Y74500000D03*
%TD*%
D26*
%TO.C,*%
X96000000Y120000000D03*
%TD*%
D12*
%TO.C,*%
X21000000Y72730000D03*
%TD*%
D10*
%TO.C,R_FB_LO*%
X64675000Y107000000D03*
X66325000Y107000000D03*
%TD*%
D19*
%TO.C,C_BOOST_IN*%
X62287500Y111500000D03*
X64112500Y111500000D03*
%TD*%
D11*
%TO.C,SW_RIGHT*%
X33000006Y34849882D03*
X38999994Y34849882D03*
X33000006Y31150118D03*
X38999994Y31150118D03*
%TD*%
D10*
%TO.C,R_AUDIO_PD*%
X64175000Y69000000D03*
X65825000Y69000000D03*
%TD*%
D20*
%TO.C,*%
X12000000Y13000000D03*
%TD*%
D12*
%TO.C,*%
X79000000Y95730000D03*
%TD*%
D10*
%TO.C,C_GAUGE*%
X80825000Y76500000D03*
X79175000Y76500000D03*
%TD*%
D19*
%TO.C,C_AUDIO_BULK*%
X70087500Y71000000D03*
X71912500Y71000000D03*
%TD*%
D10*
%TO.C,R_ILIM*%
X75675000Y105000000D03*
X77325000Y105000000D03*
%TD*%
%TO.C,R_CC1*%
X72175000Y113000000D03*
X73825000Y113000000D03*
%TD*%
D25*
%TO.C,C_BOOST_OUT2*%
X57962500Y105000000D03*
X55037500Y105000000D03*
%TD*%
D11*
%TO.C,SW_UP*%
X23000006Y44849882D03*
X28999994Y44849882D03*
X23000006Y41150118D03*
X28999994Y41150118D03*
%TD*%
D26*
%TO.C,*%
X4000000Y120000000D03*
%TD*%
D10*
%TO.C,R_CHG_PULL*%
X74175000Y92000000D03*
X75825000Y92000000D03*
%TD*%
D12*
%TO.C,*%
X21000000Y95730000D03*
%TD*%
D19*
%TO.C,C_SYS*%
X72087500Y103900000D03*
X73912500Y103900000D03*
%TD*%
D26*
%TO.C,*%
X96000000Y4000000D03*
%TD*%
D11*
%TO.C,SW_LEFT*%
X13000006Y34849882D03*
X18999994Y34849882D03*
X13000006Y31150118D03*
X18999994Y31150118D03*
%TD*%
D26*
%TO.C,*%
X4000000Y4000000D03*
%TD*%
D10*
%TO.C,R_TIMER*%
X68175000Y109000000D03*
X69825000Y109000000D03*
%TD*%
D27*
%TO.C,J_USB*%
X77899918Y117694433D03*
X72100082Y117694433D03*
D28*
X79325112Y117194307D03*
D29*
X79325112Y121374131D03*
X70674888Y121374131D03*
D28*
X70674888Y117194307D03*
%TD*%
D30*
%TO.C,J_BAT*%
X85000000Y87460000D03*
D31*
X85000000Y90000000D03*
X85000000Y92540000D03*
%TD*%
%TO.C,TP_3V3*%
X42000000Y109000000D03*
%TD*%
D30*
%TO.C,J_SPEAKER*%
X69270000Y80000000D03*
D31*
X66730000Y80000000D03*
%TD*%
D32*
%TO.C,J_PI*%
X74130000Y98270000D03*
X74130000Y95730000D03*
X71590000Y98270000D03*
X71590000Y95730000D03*
X69050000Y98270000D03*
X69050000Y95730000D03*
X66510000Y98270000D03*
X66510000Y95730000D03*
X63970000Y98270000D03*
X63970000Y95730000D03*
X61430000Y98270000D03*
X61430000Y95730000D03*
X58890000Y98270000D03*
X58890000Y95730000D03*
X56350000Y98270000D03*
X56350000Y95730000D03*
X53810000Y98270000D03*
X53810000Y95730000D03*
X51270000Y98270000D03*
X51270000Y95730000D03*
X48730000Y98270000D03*
X48730000Y95730000D03*
X46190000Y98270000D03*
X46190000Y95730000D03*
X43650000Y98270000D03*
X43650000Y95730000D03*
X41110000Y98270000D03*
X41110000Y95730000D03*
X38570000Y98270000D03*
X38570000Y95730000D03*
X36030000Y98270000D03*
X36030000Y95730000D03*
X33490000Y98270000D03*
X33490000Y95730000D03*
X30950000Y98270000D03*
X30950000Y95730000D03*
X28410000Y98270000D03*
X28410000Y95730000D03*
X25870000Y98270000D03*
X25870000Y95730000D03*
%TD*%
D31*
%TO.C,TP_5V*%
X36000000Y109000000D03*
%TD*%
%TO.C,TP_GND*%
X30000000Y109000000D03*
%TD*%
D30*
%TO.C,J_OFF*%
X85270000Y107000000D03*
D31*
X82730000Y107000000D03*
%TD*%
M02*
