%TF.GenerationSoftware,KiCad,Pcbnew,10.0.5*%
%TF.CreationDate,2026-10-02T08:00:26+02:00*%
%TF.ProjectId,index,696e6465-782e-46b6-9963-61645f706362,rev?*%
%TF.SameCoordinates,Original*%
%TF.FileFunction,Profile,NP*%
%FSLAX46Y46*%
G04 Gerber Fmt 4.6, Leading zero omitted, Abs format (unit mm)*
G04 Created by KiCad (PCBNEW 10.0.5) date 2026-10-02 08:00:26*
%MOMM*%
%LPD*%
G01*
G04 APERTURE LIST*
%TA.AperFunction,Profile*%
%ADD10C,0.100000*%
%TD*%
G04 APERTURE END LIST*
D10*
X0Y121000000D02*
X0Y3000000D01*
X0Y3000000D02*
X1606Y2901843D01*
X1606Y121098157D02*
X0Y121000000D01*
X1606Y2901843D02*
X6423Y2803791D01*
X6423Y121196209D02*
X1606Y121098157D01*
X6423Y2803791D02*
X14446Y2705949D01*
X14446Y121294051D02*
X6423Y121196209D01*
X14446Y2705949D02*
X25665Y2608421D01*
X25665Y121391579D02*
X14446Y121294051D01*
X25665Y2608421D02*
X40070Y2511314D01*
X40070Y121488686D02*
X25665Y121391579D01*
X40070Y2511314D02*
X57644Y2414729D01*
X57644Y121585271D02*
X40070Y121488686D01*
X57644Y2414729D02*
X78369Y2318771D01*
X78369Y121681229D02*
X57644Y121585271D01*
X78369Y2318771D02*
X102223Y2223543D01*
X102223Y121776457D02*
X78369Y121681229D01*
X102223Y2223543D02*
X129179Y2129146D01*
X129179Y121870854D02*
X102223Y121776457D01*
X129179Y2129146D02*
X159210Y2035682D01*
X159210Y121964318D02*
X129179Y121870854D01*
X159210Y2035682D02*
X192282Y1943250D01*
X192282Y122056750D02*
X159210Y121964318D01*
X192282Y1943250D02*
X228361Y1851950D01*
X228361Y122148050D02*
X192282Y122056750D01*
X228361Y1851950D02*
X267409Y1761879D01*
X267409Y122238121D02*
X228361Y122148050D01*
X267409Y1761879D02*
X309382Y1673134D01*
X309382Y122326866D02*
X267409Y122238121D01*
X309382Y1673134D02*
X354236Y1585810D01*
X354236Y122414190D02*
X309382Y122326866D01*
X354236Y1585810D02*
X401924Y1500000D01*
X401924Y122500000D02*
X354236Y122414190D01*
X401924Y1500000D02*
X452393Y1415796D01*
X452393Y122584204D02*
X401924Y122500000D01*
X452393Y1415796D02*
X505591Y1333289D01*
X505591Y122666711D02*
X452393Y122584204D01*
X505591Y1333289D02*
X561460Y1252567D01*
X561460Y122747433D02*
X505591Y122666711D01*
X561460Y1252567D02*
X619940Y1173716D01*
X619940Y122826284D02*
X561460Y122747433D01*
X619940Y1173716D02*
X680969Y1096820D01*
X680969Y122903180D02*
X619940Y122826284D01*
X680969Y1096820D02*
X744481Y1021963D01*
X744481Y122978037D02*
X680969Y122903180D01*
X744481Y1021963D02*
X810408Y949223D01*
X810408Y123050777D02*
X744481Y122978037D01*
X810408Y949223D02*
X878680Y878680D01*
X878680Y123121320D02*
X810408Y123050777D01*
X878680Y878680D02*
X949223Y810408D01*
X949223Y123189592D02*
X878680Y123121320D01*
X949223Y810408D02*
X1021963Y744481D01*
X1021963Y123255519D02*
X949223Y123189592D01*
X1021963Y744481D02*
X1096820Y680969D01*
X1096820Y123319031D02*
X1021963Y123255519D01*
X1096820Y680969D02*
X1173716Y619940D01*
X1173716Y123380060D02*
X1096820Y123319031D01*
X1173716Y619940D02*
X1252567Y561460D01*
X1252567Y123438540D02*
X1173716Y123380060D01*
X1252567Y561460D02*
X1333289Y505591D01*
X1333289Y123494409D02*
X1252567Y123438540D01*
X1333289Y505591D02*
X1415796Y452393D01*
X1415796Y123547607D02*
X1333289Y123494409D01*
X1415796Y452393D02*
X1500000Y401924D01*
X1500000Y123598076D02*
X1415796Y123547607D01*
X1500000Y401924D02*
X1585810Y354236D01*
X1585810Y123645764D02*
X1500000Y123598076D01*
X1585810Y354236D02*
X1673134Y309382D01*
X1673134Y123690618D02*
X1585810Y123645764D01*
X1673134Y309382D02*
X1761879Y267409D01*
X1761879Y123732591D02*
X1673134Y123690618D01*
X1761879Y267409D02*
X1851950Y228361D01*
X1851950Y123771639D02*
X1761879Y123732591D01*
X1851950Y228361D02*
X1943250Y192282D01*
X1943250Y123807718D02*
X1851950Y123771639D01*
X1943250Y192282D02*
X2035682Y159210D01*
X2035682Y123840790D02*
X1943250Y123807718D01*
X2035682Y159210D02*
X2129146Y129179D01*
X2129146Y123870821D02*
X2035682Y123840790D01*
X2129146Y129179D02*
X2223543Y102223D01*
X2223543Y123897777D02*
X2129146Y123870821D01*
X2223543Y102223D02*
X2318771Y78369D01*
X2318771Y123921631D02*
X2223543Y123897777D01*
X2318771Y78369D02*
X2414729Y57644D01*
X2414729Y123942356D02*
X2318771Y123921631D01*
X2414729Y57644D02*
X2511314Y40070D01*
X2511314Y123959930D02*
X2414729Y123942356D01*
X2511314Y40070D02*
X2608421Y25665D01*
X2608421Y123974335D02*
X2511314Y123959930D01*
X2608421Y25665D02*
X2705949Y14446D01*
X2705949Y123985554D02*
X2608421Y123974335D01*
X2705949Y14446D02*
X2803791Y6423D01*
X2803791Y123993577D02*
X2705949Y123985554D01*
X2803791Y6423D02*
X2901843Y1606D01*
X2901843Y123998394D02*
X2803791Y123993577D01*
X2901843Y1606D02*
X3000000Y0D01*
X3000000Y124000000D02*
X2901843Y123998394D01*
X3000000Y0D02*
X97000000Y0D01*
X97000000Y124000000D02*
X3000000Y124000000D01*
X97000000Y0D02*
X97098157Y1606D01*
X97098157Y123998394D02*
X97000000Y124000000D01*
X97098157Y1606D02*
X97196209Y6423D01*
X97196209Y123993577D02*
X97098157Y123998394D01*
X97196209Y6423D02*
X97294051Y14446D01*
X97294051Y123985554D02*
X97196209Y123993577D01*
X97294051Y14446D02*
X97391579Y25665D01*
X97391579Y123974335D02*
X97294051Y123985554D01*
X97391579Y25665D02*
X97488686Y40070D01*
X97488686Y123959930D02*
X97391579Y123974335D01*
X97488686Y40070D02*
X97585271Y57644D01*
X97585271Y123942356D02*
X97488686Y123959930D01*
X97585271Y57644D02*
X97681229Y78369D01*
X97681229Y123921631D02*
X97585271Y123942356D01*
X97681229Y78369D02*
X97776457Y102223D01*
X97776457Y123897777D02*
X97681229Y123921631D01*
X97776457Y102223D02*
X97870854Y129179D01*
X97870854Y123870821D02*
X97776457Y123897777D01*
X97870854Y129179D02*
X97964318Y159210D01*
X97964318Y123840790D02*
X97870854Y123870821D01*
X97964318Y159210D02*
X98056750Y192282D01*
X98056750Y123807718D02*
X97964318Y123840790D01*
X98056750Y192282D02*
X98148050Y228361D01*
X98148050Y123771639D02*
X98056750Y123807718D01*
X98148050Y228361D02*
X98238121Y267409D01*
X98238121Y123732591D02*
X98148050Y123771639D01*
X98238121Y267409D02*
X98326866Y309382D01*
X98326866Y123690618D02*
X98238121Y123732591D01*
X98326866Y309382D02*
X98414190Y354236D01*
X98414190Y123645764D02*
X98326866Y123690618D01*
X98414190Y354236D02*
X98500000Y401924D01*
X98500000Y123598076D02*
X98414190Y123645764D01*
X98500000Y401924D02*
X98584204Y452393D01*
X98584204Y123547607D02*
X98500000Y123598076D01*
X98584204Y452393D02*
X98666711Y505591D01*
X98666711Y123494409D02*
X98584204Y123547607D01*
X98666711Y505591D02*
X98747433Y561460D01*
X98747433Y123438540D02*
X98666711Y123494409D01*
X98747433Y561460D02*
X98826284Y619940D01*
X98826284Y123380060D02*
X98747433Y123438540D01*
X98826284Y619940D02*
X98903180Y680969D01*
X98903180Y123319031D02*
X98826284Y123380060D01*
X98903180Y680969D02*
X98978037Y744481D01*
X98978037Y123255519D02*
X98903180Y123319031D01*
X98978037Y744481D02*
X99050777Y810408D01*
X99050777Y123189592D02*
X98978037Y123255519D01*
X99050777Y810408D02*
X99121320Y878680D01*
X99121320Y123121320D02*
X99050777Y123189592D01*
X99121320Y878680D02*
X99189592Y949223D01*
X99189592Y123050777D02*
X99121320Y123121320D01*
X99189592Y949223D02*
X99255519Y1021963D01*
X99255519Y122978037D02*
X99189592Y123050777D01*
X99255519Y1021963D02*
X99319031Y1096820D01*
X99319031Y122903180D02*
X99255519Y122978037D01*
X99319031Y1096820D02*
X99380060Y1173716D01*
X99380060Y122826284D02*
X99319031Y122903180D01*
X99380060Y1173716D02*
X99438540Y1252567D01*
X99438540Y122747433D02*
X99380060Y122826284D01*
X99438540Y1252567D02*
X99494409Y1333289D01*
X99494409Y122666711D02*
X99438540Y122747433D01*
X99494409Y1333289D02*
X99547607Y1415796D01*
X99547607Y122584204D02*
X99494409Y122666711D01*
X99547607Y1415796D02*
X99598076Y1500000D01*
X99598076Y122500000D02*
X99547607Y122584204D01*
X99598076Y1500000D02*
X99645764Y1585810D01*
X99645764Y122414190D02*
X99598076Y122500000D01*
X99645764Y1585810D02*
X99690618Y1673134D01*
X99690618Y122326866D02*
X99645764Y122414190D01*
X99690618Y1673134D02*
X99732591Y1761879D01*
X99732591Y122238121D02*
X99690618Y122326866D01*
X99732591Y1761879D02*
X99771639Y1851950D01*
X99771639Y122148050D02*
X99732591Y122238121D01*
X99771639Y1851950D02*
X99807718Y1943250D01*
X99807718Y122056750D02*
X99771639Y122148050D01*
X99807718Y1943250D02*
X99840790Y2035682D01*
X99840790Y121964318D02*
X99807718Y122056750D01*
X99840790Y2035682D02*
X99870821Y2129146D01*
X99870821Y121870854D02*
X99840790Y121964318D01*
X99870821Y2129146D02*
X99897777Y2223543D01*
X99897777Y121776457D02*
X99870821Y121870854D01*
X99897777Y2223543D02*
X99921631Y2318771D01*
X99921631Y121681229D02*
X99897777Y121776457D01*
X99921631Y2318771D02*
X99942356Y2414729D01*
X99942356Y121585271D02*
X99921631Y121681229D01*
X99942356Y2414729D02*
X99959930Y2511314D01*
X99959930Y121488686D02*
X99942356Y121585271D01*
X99959930Y2511314D02*
X99974335Y2608421D01*
X99974335Y121391579D02*
X99959930Y121488686D01*
X99974335Y2608421D02*
X99985554Y2705949D01*
X99985554Y121294051D02*
X99974335Y121391579D01*
X99985554Y2705949D02*
X99993577Y2803791D01*
X99993577Y121196209D02*
X99985554Y121294051D01*
X99993577Y2803791D02*
X99998394Y2901843D01*
X99998394Y121098157D02*
X99993577Y121196209D01*
X99998394Y2901843D02*
X100000000Y3000000D01*
X100000000Y121000000D02*
X99998394Y121098157D01*
X100000000Y3000000D02*
X100000000Y121000000D01*
M02*
